<svg xmlns="http://www.w3.org/2000/svg" xmlns:xlink="http://www.w3.org/1999/xlink" viewBox="0 0 1200 800"><style><![CDATA[.AQ{fill:#fff}.AR{stroke-linejoin:round}.AS{stroke-miterlimit:10}.AT{fill:#8ba3c6}.AU{opacity:.23}.AV{fill:#072945}.AW{fill:none}.AX{fill:#5f7799}.AY{stroke-linecap:round}.AZ{fill:#d41f26}.Aa{fill:#b9d1f6}.Ab{fill:#89e1ff}.Ac{fill:#354e6e}.Ad{stroke:#fff}.Ae{fill:#a7c3ea}.Af{fill:#69d6f4}.Ag{stroke-width:1.461}.Ah{fill:#051d2b}.Ai{stroke:#354e6e}.Aj{fill:#b1000e}.Ak{fill:#b71521}.Al{stroke:#072945}.Am{stroke-width:1.391}.An{stroke-width:2.781}.Ao{stroke-width:2.53}.Ap{stroke-width:1.063}]]></style><path d="M0 0h1200v800H0z" class="AQ"/><linearGradient id="A" gradientUnits="userSpaceOnUse" x1="477.276" y1="458.074" x2="1381.285" y2="-308.742"><stop offset="0" stop-color="#b9d1f6" stop-opacity="0"/><stop offset=".144" stop-color="#b9d1f6" stop-opacity=".144"/><stop offset="1" stop-color="#b9d1f6"/></linearGradient><circle cx="671.74" cy="293.12" r="271.09" fill="url(#A)"/><linearGradient id="B" gradientUnits="userSpaceOnUse" x1="177.514" y1="481.534" x2="540.458" y2="173.671"><stop offset="0" stop-color="#b9d1f6" stop-opacity="0"/><stop offset=".144" stop-color="#b9d1f6" stop-opacity=".144"/><stop offset="1" stop-color="#b9d1f6"/></linearGradient><circle cx="255.59" cy="415.31" r="108.84" fill="url(#B)"/><path d="M388.83 153.13a8.2 8.2 0 1 1-8.2-8.2c4.53-.01 8.2 3.66 8.2 8.2zM511.8 41.9c0 2.3-1.87 4.17-4.17 4.17s-4.17-1.87-4.17-4.17 1.87-4.17 4.17-4.17a4.17 4.17 0 0 1 4.17 4.17z" class="Aa"/><linearGradient id="C" gradientUnits="userSpaceOnUse" x1="1046.653" y1="326.658" x2="1243.586" y2="197.358"><stop offset="0" stop-color="#b9d1f6" stop-opacity="0"/><stop offset=".144" stop-color="#b9d1f6" stop-opacity=".144"/><stop offset="1" stop-color="#b9d1f6"/></linearGradient><circle cx="1074.29" cy="308.51" r="33.13" fill="url(#C)"/><linearGradient id="D" gradientUnits="userSpaceOnUse" x1="1185.514" y1="616.106" x2="-816.969" y2="1032.922"><stop offset="0" stop-color="#fff"/><stop offset=".01" stop-color="#fdfdff"/><stop offset=".132" stop-color="#e4edfc"/><stop offset=".268" stop-color="#d1e1f9"/><stop offset=".426" stop-color="#c3d8f7"/><stop offset=".626" stop-color="#bbd3f6"/><stop offset=".997" stop-color="#b9d1f6"/></linearGradient><path d="M1119.1 717.7c-22.1 23.44-52.26 34.85-84.07 35.1-21.06.17-42.08-2.86-63.13-2.2-54.43 1.7-105.2 27.6-159.8 27.4-59.2-.24-117.23-11.88-175.53-20.6-76.86-11.5-154.56-16.53-232.23-18.1-74.9-1.5-150.25 2.53-222.67-20.63l-2.92-.96h940.36" fill="url(#D)"/><path d="M973.3 598.1H324.58c-11.68 0-21.15-9.47-21.15-21.15v-368.8c0-11.68 9.47-21.15 21.15-21.15H973.3c11.68 0 21.15 9.47 21.15 21.15v368.8c0 11.67-9.47 21.14-21.15 21.14z" class="Ac"/><defs><path id="E" d="M973.3 598.1H324.58c-11.68 0-21.15-9.47-21.15-21.15v-368.8c0-11.68 9.47-21.15 21.15-21.15H973.3c11.68 0 21.15 9.47 21.15 21.15v368.8c0 11.67-9.47 21.14-21.15 21.14z"/><path id="F" d="M823.22 439.36h-54.6c-2.98 0-5.4-2.4-5.4-5.4v-56.7c0-2.98 2.4-5.4 5.4-5.4h54.6c2.98 0 5.4 2.4 5.4 5.4v56.7c0 2.98-2.42 5.4-5.4 5.4z"/><path id="G" d="M912.47 517.46c-.12 0-.23-.02-.35-.06l-4.7-1.74c-.52-.2-.78-.77-.6-1.3s.77-.78 1.3-.6l4.7 1.74c.52.2.78.77.6 1.3-.15.4-.54.65-.94.65z"/><path id="H" d="M903.1 513.98c-.12 0-.23-.02-.35-.06l-4.7-1.74c-.52-.2-.78-.77-.6-1.3s.77-.78 1.3-.6l4.7 1.74c.52.2.78.77.6 1.3-.15.4-.53.65-.94.65z"/><path id="I" d="M865.6 500.05c-.12 0-.23-.02-.35-.06l-4.7-1.74c-.52-.2-.78-.77-.6-1.3s.77-.78 1.3-.6l4.7 1.74c.52.2.78.77.6 1.3-.16.4-.54.65-.94.65z"/><path id="J" d="M775.36 517.46c-.4 0-.8-.25-.94-.65-.2-.52.07-1.1.6-1.3l4.7-1.74c.52-.2 1.1.07 1.3.6.2.52-.07 1.1-.6 1.3l-4.7 1.74a1.12 1.12 0 0 1-.35.06z"/><path id="K" d="M831.6 496.57c-.4 0-.8-.25-.94-.65-.2-.52.07-1.1.6-1.3l4.7-1.74c.52-.2 1.1.07 1.3.6.2.52-.07 1.1-.6 1.3l-4.7 1.74a1.03 1.03 0 0 1-.35.06z"/><path id="L" d="M850.35 489.6c-.4 0-.8-.25-.94-.65-.2-.52.07-1.1.6-1.3l4.7-1.74a1.01 1.01 0 0 1 1.29.59c.2.52-.07 1.1-.6 1.3l-4.7 1.74a1.03 1.03 0 0 1-.35.06z"/><path id="M" d="M905.9 429.42s-9.5 11.28 11.7 16.25c6.85 1.6 12.87 5.33 14.55 12.53 1.38 5.9.17 12.02.1 17.97-.07 5.4 1.83 9.7 4.3 14.4 2.9 5.55 4 11.34 2.4 17.44-1.57 6.04-4.78 11.6-8.2 16.76-3.7 5.56-5.86 11.88-6.12 18.56-.2 5.07.77 10.02 1.12 15.06.22 3.2-.04 6.55-1.63 9.33-1.45 2.53-3.9 4.37-6.53 5.62-5.44 2.58-11.63 2.86-17.53 4.03-13.17 2.6-25.2 9.95-33.7 20.32-8.75 10.67-15.02 23.27-20.02 36.07-3.36 8.62-6.74 17.37-8.52 26.47-1.85 9.48-2.6 19.16-4.7 28.58-2.17 9.77-6.7 21.54-16.15 26.37-3.52 1.8-7.48 2.46-11.4 2.2 0 0-1.17 6.77-2.5 6.75s-18-8.06-18-8.06l-2.34-28.37 50.74-103.83 23.98-20.03 34.36-80.43c0-.44-1.46-29.5-1.46-29.5l15.5-24.5z"/><path id="N" d="M393.27 462.57h0c1.3-.96 1.48-2.8.46-4.04-1.1-1.36-2.35-2.6-3.7-3.7-1.25-1-3.08-.83-4.04.46h0c-.8 1.08-2.24 1.4-3.46.83l-1.5-.62c-1.26-.46-2.04-1.7-1.85-3.03v-.02c.23-1.6-.92-3-2.5-3.18l-2.64-.14c-.9 0-1.77.05-2.64.14-1.6.17-2.74 1.6-2.5 3.18v.02c.2 1.32-.6 2.57-1.85 3.03l-1.5.62c-1.22.56-2.66.24-3.46-.83h0c-.96-1.3-2.8-1.48-4.04-.46-1.36 1.1-2.6 2.35-3.7 3.7-1 1.25-.83 3.08.46 4.04h0c1.08.8 1.4 2.24.83 3.46l-.62 1.5c-.46 1.26-1.7 2.04-3.03 1.85h-.02c-1.6-.23-3 .92-3.18 2.5l-.14 2.64c0 .9.05 1.77.14 2.64.17 1.6 1.6 2.74 3.18 2.5h.02c1.32-.2 2.57.6 3.03 1.85l.62 1.5c.56 1.22.24 2.66-.83 3.46h0c-1.3.96-1.48 2.8-.46 4.04 1.1 1.36 2.35 2.6 3.7 3.7 1.25 1 3.08.83 4.04-.46h0c.8-1.08 2.24-1.4 3.46-.83l1.5.62c1.26.46 2.04 1.7 1.85 3.03v.02c-.23 1.6.92 3 2.5 3.18l2.64.14c.9 0 1.77-.05 2.64-.14 1.6-.17 2.74-1.6 2.5-3.18v-.02c-.2-1.32.6-2.57 1.85-3.03l1.5-.62c1.22-.56 2.66-.24 3.46.83h0c.96 1.3 2.8 1.48 4.04.46 1.36-1.1 2.6-2.35 3.7-3.7 1-1.25.83-3.08-.46-4.04h0c-1.08-.8-1.4-2.24-.83-3.46l.62-1.5c.46-1.26 1.7-2.04 3.03-1.85h.02c1.6.23 3-.92 3.18-2.5.1-.87.14-1.75.14-2.64s-.05-1.77-.14-2.64c-.17-1.6-1.6-2.74-3.18-2.5h-.02c-1.32.2-2.57-.6-3.03-1.85l-.62-1.5c-.57-1.22-.25-2.66.83-3.46zm-17.15 24.2c-8.5 1.4-15.73-5.84-14.34-14.33.84-5.14 5-9.3 10.13-10.13 8.5-1.4 15.73 5.84 14.33 14.33-.83 5.14-4.98 9.28-10.12 10.13z"/><path id="O" d="M376.9 491.28a17.02 17.02 0 0 1-19.64-19.63c1.16-7.04 6.84-12.72 13.88-13.88a17.01 17.01 0 0 1 19.63 19.63c-1.15 7.05-6.83 12.73-13.87 13.88z"/><path id="P" d="M588.03 508.27h-54.6c-2.98 0-5.4-2.4-5.4-5.4v-56.7c0-2.98 2.4-5.4 5.4-5.4h54.6c2.98 0 5.4 2.4 5.4 5.4v56.7a5.4 5.4 0 0 1-5.39 5.39z"/><path id="Q" d="M224.45 434.9h41c.94 0 1.8-.56 2.17-1.42a2.35 2.35 0 0 0-.43-2.55l-39.42-42.57-3.47 3.2 35.74 38.6h-35.58v4.73z"/><path id="R" d="M454.46 119.73c.26 0 .52-.1.74-.26l23.22-18.77v17.55c0 .65.53 1.18 1.18 1.18s1.18-.53 1.18-1.18V98.22c0-.46-.26-.87-.67-1.07s-.9-.14-1.25.15l-25.15 20.33a1.18 1.18 0 0 0-.18 1.66 1.2 1.2 0 0 0 .93.44z"/><path id="S" d="M432 119.73c.26 0 .52-.1.74-.26l23.23-18.77v17.55c0 .65.53 1.18 1.18 1.18s1.18-.53 1.18-1.18V98.22c0-.46-.26-.87-.67-1.07s-.9-.14-1.25.15l-25.15 20.33a1.18 1.18 0 0 0-.18 1.66c.23.3.57.44.92.44z"/><path id="T" d="M364.62 119.73c.26 0 .52-.1.74-.26l23.23-18.77v17.55c0 .65.53 1.18 1.18 1.18s1.18-.53 1.18-1.18V98.22c0-.46-.26-.87-.67-1.07s-.9-.14-1.25.15l-25.15 20.33a1.18 1.18 0 0 0 .74 2.1z"/><path id="U" d="M634 278.03s4.74 22.92 50.37 33.07c45.63 10.14 9.12 29.14 43.7 41.83s-96.2 2.93-96.2 2.93l-16.95-34.82 19.08-43z"/><path id="V" d="M705.8 314.07c0 7.5-6.07 13.57-13.57 13.57-7.5 0-13.57-6.07-13.57-13.57 0-7.5 6.07-13.57 13.57-13.57s13.57 6.07 13.57 13.57z"/><path id="W" d="M689.47 314.07v-6.35l4.45 3.17 4.45 3.18-4.45 3.17-4.45 3.18z"/><path id="X" d="M584.3 395.1h-4.65c-.45 0-.8-.36-.8-.8s.36-.8.8-.8h4.65c.45 0 .8.36.8.8s-.36.8-.8.8zm-11.62 0h-4.65c-.45 0-.8-.36-.8-.8s.36-.8.8-.8h4.65c.45 0 .8.36.8.8s-.36.8-.8.8zm-11.62 0h-4.65c-.45 0-.8-.36-.8-.8s.36-.8.8-.8h4.65c.45 0 .8.36.8.8s-.36.8-.8.8zm-11.62 0h-4.65c-.45 0-.8-.36-.8-.8s.36-.8.8-.8h4.65c.45 0 .8.36.8.8s-.36.8-.8.8zm-11.62 0h-4.65c-1.3 0-2.5-.5-3.44-1.4-.32-.32-.33-.83-.02-1.15.32-.32.83-.33 1.15-.02a3.27 3.27 0 0 0 2.31.94h4.65c.45 0 .8.36.8.8a.81.81 0 0 1-.81.82zm53.2-1a.78.78 0 0 1-.61-.28.81.81 0 0 1 .08-1.15c.72-.63 1.13-1.53 1.13-2.5v-1.13c0-.45.36-.8.8-.8s.8.36.8.8v1.14a4.91 4.91 0 0 1-1.69 3.71c-.15.14-.34.2-.53.2zm-61.96-6.8c-.45 0-.8-.36-.8-.8v-4.65c0-.45.36-.8.8-.8s.8.36.8.8v4.65c0 .45-.36.8-.8.8zm63.37-4.42c-.45 0-.8-.36-.8-.8v-4.65c0-.45.36-.8.8-.8s.8.36.8.8v4.65a.8.8 0 0 1-.81.81zm-63.37-7.2c-.45 0-.8-.36-.8-.8v-4.65c0-.45.36-.8.8-.8s.8.36.8.8v4.65c0 .45-.36.8-.8.8zm63.37-4.42c-.45 0-.8-.36-.8-.8v-4.65c0-.45.36-.8.8-.8s.8.36.8.8v4.65a.8.8 0 0 1-.81.81zm-63.37-7.2c-.45 0-.8-.36-.8-.8v-4.65c0-.45.36-.8.8-.8s.8.36.8.8v4.65c0 .45-.36.8-.8.8zm63.37-4.4c-.45 0-.8-.36-.8-.8v-4.65c0-.45.36-.8.8-.8s.8.36.8.8v4.65c.01.44-.36.8-.8.8zm-63.37-7.2c-.45 0-.8-.36-.8-.8v-4.65c0-.45.36-.8.8-.8s.8.36.8.8v4.65c0 .45-.36.8-.8.8zm63.37-4.4c-.45 0-.8-.36-.8-.8v-4.65c0-.45.36-.8.8-.8s.8.36.8.8v4.65c.01.44-.36.8-.8.8zm-63.37-7.2c-.45 0-.8-.36-.8-.8v-4.65c0-.45.36-.8.8-.8s.8.36.8.8V340c0 .45-.36.8-.8.8zm63.37-4.4c-.45 0-.8-.36-.8-.8v-.94c0-1.02-.46-1.96-1.26-2.6a.81.81 0 1 1 1.01-1.27 4.9 4.9 0 0 1 1.87 3.87v.94c.01.43-.36.8-.8.8zm-8.33-5.05h-4.65c-.45 0-.8-.36-.8-.8s.36-.8.8-.8h4.65c.45 0 .8.36.8.8 0 .44-.36.8-.8.8zm-11.62 0h-4.65c-.45 0-.8-.36-.8-.8s.36-.8.8-.8h4.65c.45 0 .8.36.8.8 0 .44-.36.8-.8.8zm-11.62 0h-4.65c-.45 0-.8-.36-.8-.8s.36-.8.8-.8h4.65c.45 0 .8.36.8.8 0 .44-.36.8-.8.8zm-11.62 0h-4.65c-.45 0-.8-.36-.8-.8s.36-.8.8-.8h4.65c.45 0 .8.36.8.8 0 .44-.36.8-.8.8zm-11.62 0h-4.45c-.44 0-.9-.35-.9-.8-.01-.44.24-.8.7-.82h4.68c.45 0 .8.36.8.8a.83.83 0 0 1-.82.81z"/><path id="Y" d="M590.8 393.08a.82.82 0 0 1-.58-.24l-2.75-2.76a.81.81 0 0 1 0-1.15.82.82 0 0 1 1.15 0l2.75 2.76a.81.81 0 0 1 0 1.15.78.78 0 0 1-.57.24zm-7.66-7.7a.82.82 0 0 1-.58-.24l-3.28-3.3a.81.81 0 0 1 0-1.15.82.82 0 0 1 1.15 0l3.28 3.3a.81.81 0 0 1 0 1.15c-.15.17-.36.24-.57.24zm-8.2-8.24a.82.82 0 0 1-.58-.24l-3.28-3.3a.81.81 0 0 1 0-1.15c.32-.32.83-.3 1.15 0l3.28 3.3a.81.81 0 0 1 0 1.15c-.15.17-.36.24-.57.24zm-8.2-8.24a.82.82 0 0 1-.58-.24l-3.28-3.3a.81.81 0 0 1 0-1.15.82.82 0 0 1 1.15 0l3.28 3.3a.81.81 0 0 1 0 1.15.8.8 0 0 1-.57.23zm-8.2-8.24a.82.82 0 0 1-.58-.24l-3.28-3.3a.81.81 0 0 1 0-1.15.82.82 0 0 1 1.15 0l3.28 3.3a.81.81 0 0 1 0 1.15.78.78 0 0 1-.57.24zm-8.2-8.24a.82.82 0 0 1-.58-.24l-3.28-3.3a.81.81 0 0 1 0-1.15.82.82 0 0 1 1.15 0l3.28 3.3a.81.81 0 0 1 0 1.15.75.75 0 0 1-.57.25zm-8.2-8.24a.82.82 0 0 1-.58-.24l-3.28-3.3a.81.81 0 0 1 0-1.15c.32-.32.83-.3 1.15 0l3.28 3.3a.81.81 0 0 1 0 1.15c-.15.17-.36.24-.57.24zm-8.2-8.24a.82.82 0 0 1-.58-.24l-3.28-3.3a.81.81 0 0 1 0-1.15.82.82 0 0 1 1.15 0l3.28 3.3a.81.81 0 0 1 0 1.15c-.16.17-.37.25-.57.25z"/><path id="Z" d="M530.7 393.08a.78.78 0 0 1-.57-.24.81.81 0 0 1 0-1.15l3.28-3.3a.81.81 0 1 1 1.15 1.15l-3.28 3.3a.79.79 0 0 1-.58.25zm8.2-8.24c-.2 0-.4-.08-.57-.24a.81.81 0 0 1 0-1.15l3.28-3.3c.32-.3.83-.32 1.15 0a.81.81 0 0 1 0 1.15l-3.28 3.3a.82.82 0 0 1-.58.24zm8.2-8.24c-.2 0-.4-.08-.57-.24a.81.81 0 0 1 0-1.15l3.28-3.3c.32-.3.83-.32 1.15 0a.81.81 0 0 1 0 1.15l-3.28 3.3a.82.82 0 0 1-.58.24zm8.2-8.24a.78.78 0 0 1-.57-.24.81.81 0 0 1 0-1.15l3.28-3.3a.81.81 0 1 1 1.15 1.15l-3.28 3.3c-.17.16-.37.24-.58.24zm8.2-8.24a.78.78 0 0 1-.57-.24.81.81 0 0 1 0-1.15l3.28-3.3a.81.81 0 1 1 1.15 1.15l-3.28 3.3a.85.85 0 0 1-.58.23zm8.2-8.24c-.2 0-.4-.08-.57-.24a.81.81 0 0 1 0-1.15l3.28-3.3a.81.81 0 1 1 1.15 1.15l-3.28 3.3a.82.82 0 0 1-.58.24zm8.2-8.24c-.2 0-.4-.08-.57-.24a.81.81 0 0 1 0-1.15l3.28-3.3a.81.81 0 1 1 1.15 1.15l-3.28 3.3a.82.82 0 0 1-.58.24zm8.2-8.24c-.2 0-.4-.08-.57-.24a.81.81 0 0 1 0-1.15l2.75-2.76a.81.81 0 1 1 1.15 1.15l-2.75 2.76c-.17.16-.38.24-.58.24z"/></defs><clipPath id="a"><use xlink:href="#E"/></clipPath><path d="M298.6 223.17S360.94 363.5 677.42 369.1s99.78 174.4 346.47 210.58-806.67 34.47-806.67 34.47l81.37-390.98z" clip-path="url(#a)" class="AX"/><defs><path id="b" d="M964.1 573.88H334.05c-5.3 0-9.6-4.3-9.6-9.6V220.44c0-5.3 4.3-9.6 9.6-9.6H964.1c5.3 0 9.6 4.3 9.6 9.6v343.84c0 5.3-4.3 9.6-9.6 9.6z"/></defs><clipPath id="c"><use xlink:href="#b"/></clipPath><g clip-path="url(#c)"><path d="M322.2 258.17v423.66h652.67V258.17z" class="AQ"/><path d="M322.2 236.9h652.68v21.28H322.2z" class="Aa"/><path d="M731.85 236.9h49.63v21.28h-49.63z" class="AQ"/><path d="M411.92 242.97h112.7v9.1h-112.7z" class="AV"/><g fill="#ff4f12" stroke="#435067" class="AR AS Ao"><path d="M557.8 247.72h15.14m19.36 0h19.72m177.7 0h16.8m-118.26 0h36.08m16.66 0h31.5m52.75 0h25.1m-219.22 0h37"/></g><path d="M322.2 207.48h652.68v29.4H322.2z" class="AT"/><g stroke-linecap="square" class="AR AS AW Ad Ao"><path d="M411.92 221.97h36.26m309.22 0h29.43m7.22 0h44.93"/></g><linearGradient id="d" gradientUnits="userSpaceOnUse" x1="680.14" y1="406.304" x2="528.585" y2="621.737"><stop offset="0" stop-color="#fff"/><stop offset=".361" stop-color="#e6effc"/><stop offset=".997" stop-color="#b9d1f6"/></linearGradient><path d="M298.48 223s62.37 140.3 378.97 145.9c316.6 5.6 99.8 174.38 346.6 210.55S217.1 613.94 217.1 613.94L298.48 223z" opacity=".25" fill="url(#d)"/></g><path d="M303.45 567.26v46.56c0 9.45 7.73 17.2 17.2 17.2H977.2c9.44 0 17.17-7.74 17.17-17.2v-46.56H303.45z" class="Ah"/><path d="M732.68 705.82H565.45l9.57-75.4h149.46z" class="AX"/><path d="M565.45 705.82h167.23l29.4 7.3-226.05.17z" class="AT"/><path d="M760.55 717.16H537.58l-1.48-3.88 226-.17z" class="AV"/><path d="M661.36 601.17a12.3 12.3 0 0 1-12.3 12.29 12.29 12.29 0 0 1-12.3-12.29 12.3 12.3 0 0 1 12.3-12.3c6.8 0 12.3 5.5 12.3 12.3z" fill="#e6f0ff"/><path d="M1028.36 539.3c2.05-.2 4.3.8 5.8 3.2 2.85 4.5 3.7 10.74 8.38 13.34 2.9 1.6 6.43 1.28 9.74 1.54 1.3.1 2.65.33 3.65 1.16 1.34 1.1 1.73 3 1.7 4.74-.2 12.03 2.57 17.28 13.65 21.65 10.5 4.14 8.4 11.6 3.55 20.58-16.54 30.68 14.6 17.35 4.33 42.1s3.04 54.25-12.42 42.12c0 0-13.62-29.87-27.67-39.1s8.42-20.2 4.02-32.76c-6.38-18.23-21.77-17.52-10.68-37.1 4.44-7.84 1.66-15.64-2.7-22.75-2.3-3.74-6.6-8.12-6.3-12.85.2-3.54 2.43-5.6 4.94-5.83z" class="Ae"/><defs><path id="e" d="M1028.36 539.3c2.05-.2 4.3.8 5.8 3.2 2.85 4.5 3.7 10.74 8.38 13.34 2.9 1.6 6.43 1.28 9.74 1.54 1.3.1 2.65.33 3.65 1.16 1.34 1.1 1.73 3 1.7 4.74-.2 12.03 2.57 17.28 13.65 21.65 10.5 4.14 8.4 11.6 3.55 20.58-16.54 30.68 14.6 17.35 4.33 42.1s3.04 54.25-12.42 42.12c0 0-13.62-29.87-27.67-39.1s8.42-20.2 4.02-32.76c-6.38-18.23-21.77-17.52-10.68-37.1 4.44-7.84 1.66-15.64-2.7-22.75-2.3-3.74-6.6-8.12-6.3-12.85.2-3.54 2.43-5.6 4.94-5.83z"/></defs><clipPath id="f"><use xlink:href="#e"/></clipPath><linearGradient id="g" gradientUnits="userSpaceOnUse" x1="1035.474" y1="631.233" x2="1093.353" y2="631.233"><stop offset="0" stop-color="#fff"/><stop offset=".997" stop-color="#b9d1f6"/></linearGradient><path d="M1040.44 536c2.05-.25 4.3 1 5.8 3.97 2.85 5.6 3.7 13.36 8.38 16.6 2.9 2 6.43 1.6 9.74 1.92 1.3.13 2.65.4 3.65 1.44 1.34 1.37 1.73 3.73 1.7 5.9-.2 14.95 2.57 21.48 13.65 26.92 10.5 5.15 8.4 14.4 3.55 25.6-16.54 38.16 14.6 21.58 4.33 52.34-10.28 30.77 3.04 67.46-12.42 52.38 0 0-13.62-37.15-27.67-48.64s8.42-25.13 4.02-40.74c-6.38-22.67-21.77-21.78-10.68-46.15 4.44-9.74 1.66-19.45-2.7-28.3-2.3-4.65-6.6-10.1-6.3-15.98.22-4.4 2.43-6.93 4.94-7.23z" clip-path="url(#f)" fill="url(#g)" class="AU"/><path d="M1093.92 563.7c-7-2.4-5.54 11.1-8.5 21.07s-32.9 4.35-20.33 29.35c12.57 25-15.9 8.36-7.4 30.17 8.5 21.8.74 45.14 9.98 39.2 9.24-5.93 5.2-33.4 14.8-36.66s11.18-7.07 1.66-15.94 24.94-17.68 16.43-35.6c-8.5-17.92 1.44-28.82-6.65-31.6z" class="AT"/><defs><path id="h" d="M1093.92 563.7c-7-2.4-5.54 11.1-8.5 21.07s-32.9 4.35-20.33 29.35c12.57 25-15.9 8.36-7.4 30.17 8.5 21.8.74 45.14 9.98 39.2 9.24-5.93 5.2-33.4 14.8-36.66s11.18-7.07 1.66-15.94 24.94-17.68 16.43-35.6c-8.5-17.92 1.44-28.82-6.65-31.6z"/></defs><clipPath id="i"><use xlink:href="#h"/></clipPath><linearGradient id="j" gradientUnits="userSpaceOnUse" x1="1063.31" y1="646.199" x2="1109.169" y2="646.199"><stop offset="0" stop-color="#fff"/><stop offset=".997" stop-color="#b9d1f6"/></linearGradient><path d="M1101.15 563.1c-7-3.3-5.54 15.3-8.5 29.08-2.96 13.77-32.9 6-20.33 40.5s-15.9 11.53-7.4 41.63c8.5 30.1.74 62.3 9.98 54.1s5.2-46.1 14.8-50.6 11.18-9.76 1.66-22 24.94-24.4 16.43-49.12c-8.5-24.72 1.44-39.77-6.65-43.6z" clip-path="url(#i)" fill="url(#j)" class="AU"/><path d="M1080.64 720.05h-31.14c-4.24 0-7.67-3.43-7.67-7.67V667.5h46.48v44.87c0 4.23-3.43 7.67-7.67 7.67z" class="Ac"/><defs><path id="k" d="M1080.64 720.05h-31.14c-4.24 0-7.67-3.43-7.67-7.67V667.5h46.48v44.87c0 4.23-3.43 7.67-7.67 7.67z"/></defs><clipPath id="l"><use xlink:href="#k"/></clipPath><path d="M1084.84 658.75s-10.75 4.33-10.4 35.03-16.65 30.35-29.13 31.74c-12.5 1.4-18.35-38.5-18.37-39.9s14.55-29.8 14.9-30.16c.35-.36 43 3.28 43 3.28z" clip-path="url(#l)" class="AX"/><use xlink:href="#F" class="Ae"/><defs><path id="m" d="M823.22 439.36h-54.6c-2.98 0-5.4-2.4-5.4-5.4v-56.7c0-2.98 2.4-5.4 5.4-5.4h54.6c2.98 0 5.4 2.4 5.4 5.4v56.7c0 2.98-2.42 5.4-5.4 5.4z"/></defs><clipPath id="n"><use xlink:href="#m"/></clipPath><linearGradient id="o" gradientUnits="userSpaceOnUse" x1="743.171" y1="397.327" x2="853.044" y2="397.327"><stop offset="0" stop-color="#fff"/><stop offset=".997" stop-color="#b9d1f6"/></linearGradient><path d="M836.76 431.62s-4.97-19.26-47-27.92c-42.04-8.66-9.15-24.5-41.15-35.26-20.44-6.87 21.1-5.84 53.78-4.2 21.15 1.06 40.28 12.88 50.66 31.34h0l-16.3 36.04z" clip-path="url(#n)" fill="url(#o)" class="AU"/><g class="AW AR AS AY Ag"><path d="M774.34 378.45h43.14m-43.14 7.25h31.22m-31.22 14.5h10.8m-10.8-7.25h43.14" class="Ai"/><path d="M774.34 408.87h43.14m-43.14 7.25h31.22m-31.22 14.5h10.8m-10.8-7.25h43.14" class="Ad"/></g><use xlink:href="#F" x="106.75" class="Ae"/><defs><path id="p" d="M929.97 439.36h-54.6c-2.98 0-5.4-2.4-5.4-5.4v-56.7c0-2.98 2.4-5.4 5.4-5.4h54.6c2.98 0 5.4 2.4 5.4 5.4v56.7c0 2.98-2.42 5.4-5.4 5.4z"/></defs><clipPath id="q"><use xlink:href="#p"/></clipPath><linearGradient id="r" gradientUnits="userSpaceOnUse" x1="849.921" y1="397.327" x2="959.794" y2="397.327"><stop offset="0" stop-color="#fff"/><stop offset=".997" stop-color="#b9d1f6"/></linearGradient><path d="M943.5 431.62s-4.97-19.26-47-27.92c-42.04-8.66-9.15-24.5-41.15-35.26-20.44-6.87 21.1-5.84 53.78-4.2 21.15 1.06 40.28 12.88 50.66 31.34h0l-16.3 36.04z" clip-path="url(#q)" fill="url(#r)" class="AU"/><g class="AW AR AY"><path d="M881.1 378.45h14.14m-14.14 7.25h31.22m-31.22 14.5h40.8m-40.8-7.25h19.14" class="AS Ag Ai"/><path d="M881.1 408.87h43.14m-43.14 7.25h31.22m-31.22 7.25h21.14" class="Ad AS Ag"/><path d="M920.5 522.33H767.16a3.42 3.42 0 0 1-3.42-3.42v-57.33a3.42 3.42 0 0 1 3.42-3.42H920.5a3.42 3.42 0 0 1 3.42 3.42v57.33c-.01 1.9-1.54 3.42-3.42 3.42z" stroke="#8ba3c6" stroke-width="2" stroke-dasharray="5.0315,5.0315"/></g><g class="AT"><path d="M920.66 520.5c-.12 0-.23-.02-.35-.06l-3.5-1.3c-.52-.2-.78-.77-.6-1.3s.77-.78 1.3-.6l3.5 1.3c.52.2.78.77.6 1.3-.15.4-.53.65-.94.65z"/><use xlink:href="#G"/><use xlink:href="#H"/><use xlink:href="#H" x="-9.38" y="-3.48"/><use xlink:href="#H" x="-18.76" y="-6.98"/><use xlink:href="#H" x="-28.13" y="-10.45"/><use xlink:href="#I"/><use xlink:href="#H" x="-46.88" y="-17.41"/><use xlink:href="#I" x="-18.75" y="-6.95"/><use xlink:href="#H" x="-65.63" y="-24.38"/><use xlink:href="#G" x="-84.37" y="-31.33"/><use xlink:href="#H" x="-84.38" y="-31.33"/><use xlink:href="#G" x="-103.12" y="-38.29"/><use xlink:href="#H" x="-103.13" y="-38.3"/><use xlink:href="#H" x="-112.5" y="-41.78"/><use xlink:href="#H" x="-121.88" y="-45.26"/><use xlink:href="#H" x="-131.25" y="-48.74"/><path d="M767.16 520.5c-.4 0-.8-.25-.94-.65-.2-.52.07-1.1.6-1.3l3.5-1.3c.52-.2 1.1.07 1.3.6.2.52-.07 1.1-.6 1.3l-3.5 1.3a1.03 1.03 0 0 1-.35.06z"/><use xlink:href="#J"/><path d="M784.73 513.98c-.4 0-.8-.25-.94-.65-.2-.52.07-1.1.6-1.3l4.7-1.74c.52-.2 1.1.07 1.3.6s-.07 1.1-.6 1.3l-4.7 1.74a1.03 1.03 0 0 1-.35.06z"/><use xlink:href="#J" x="18.74" y="-6.96"/><path d="M803.48 507c-.4 0-.8-.25-.94-.65-.2-.52.07-1.1.6-1.3l4.7-1.74c.52-.2 1.1.07 1.3.6s-.07 1.1-.6 1.3l-4.7 1.74c-.12.04-.23.06-.35.06z"/><use xlink:href="#J" x="37.5" y="-13.93"/><path d="M822.23 500.05c-.4 0-.8-.25-.94-.65-.2-.52.07-1.1.6-1.3l4.7-1.74c.52-.2 1.1.07 1.3.6.2.52-.07 1.1-.6 1.3l-4.7 1.74c-.12.04-.23.06-.35.06z"/><use xlink:href="#K"/><use xlink:href="#L"/><path d="M859.73 486.13c-.4 0-.8-.25-.94-.65-.2-.52.07-1.1.6-1.3l4.7-1.74c.52-.2 1.1.07 1.3.6s-.07 1.1-.6 1.3l-4.7 1.74a1.12 1.12 0 0 1-.35.06z"/><use xlink:href="#K" x="37.5" y="-13.92"/><use xlink:href="#J" x="103.12" y="-38.29"/><use xlink:href="#L" x="37.5" y="-13.92"/><use xlink:href="#J" x="121.87" y="-45.26"/><path d="M906.6 468.72c-.4 0-.8-.25-.94-.65-.2-.52.07-1.1.6-1.3l4.7-1.74a1.01 1.01 0 0 1 1.29.59c.2.52-.07 1.1-.6 1.3l-4.7 1.74c-.12.04-.23.06-.35.06z"/><use xlink:href="#J" x="140.62" y="-52.22"/></g><path d="M815.9 426.97l5.02 23.1c.44 2-1.06 3.92-3.1 3.98h0c-1.72.05-3.2-1.23-3.36-2.94L812 427.45l3.9-.48z" class="AV"/><path d="M815.9 426.97l-3.9.48.4 3.74c1.4.02 3.15-.4 4.05-1.72l-.55-2.5z" class="Ah"/><path d="M824.8 420.87c-5 7.05-14.8 8.7-21.83 3.68-7.05-5-8.7-14.8-3.68-21.83 5-7.05 14.8-8.7 21.83-3.68s8.7 14.8 3.68 21.83z" opacity=".35" class="AQ"/><defs><path id="s" d="M824.8 420.87c-5 7.05-14.8 8.7-21.83 3.68-7.05-5-8.7-14.8-3.68-21.83 5-7.05 14.8-8.7 21.83-3.68s8.7 14.8 3.68 21.83z"/></defs><clipPath id="t"><use xlink:href="#s"/></clipPath><linearGradient id="u" gradientUnits="userSpaceOnUse" x1="790.681" y1="424.814" x2="826.871" y2="410.805"><stop offset="0" stop-color="#fff"/><stop offset=".01" stop-color="#fdfdff"/><stop offset=".132" stop-color="#e4edfc"/><stop offset=".268" stop-color="#d1e1f9"/><stop offset=".426" stop-color="#c3d8f7"/><stop offset=".626" stop-color="#bbd3f6"/><stop offset=".997" stop-color="#b9d1f6"/></linearGradient><path d="M791.26 406s4.6 8.98 19.8 6.78 6.78 10.98 19 11.42-28.67 14.88-28.67 14.88l-9.93-12.26-.18-20.82z" opacity=".5" clip-path="url(#t)" fill="url(#u)"/><path d="M818.22 427.65c-5.16 2-11.2 1.45-16.03-2-7.65-5.44-9.44-16.08-4-23.73 5.44-7.64 16.08-9.44 23.73-4 7.64 5.44 9.44 16.08 4 23.73h0a16.91 16.91 0 0 1-7.7 5.99zm-11.35-29.17c-2.52.98-4.8 2.67-6.47 5.03-4.57 6.42-3.06 15.37 3.36 19.94s15.37 3.06 19.94-3.36 3.06-15.37-3.36-19.94c-4.06-2.9-9.13-3.35-13.47-1.67zm46.1 309.27s-21.13 8.32-14.62 9.63c.73.15 25.5 0 25.5 0s1.7-5.45-3.4-10.77c-5.13-5.32-7.47 1.14-7.47 1.14z" class="AV"/><defs><path id="v" d="M852.85 707.66s-22.03 9.14-15.48 10.2c.74.12 26.7-1 26.7-1s1.5-5.5-3.82-10.63c-5.33-5.12-7.4 1.43-7.4 1.43z"/></defs><clipPath id="w"><use xlink:href="#v"/></clipPath><path d="M848.56 623.94s14 77.74 7.1 88.26-19 8.5-19 8.5-1.94-8.5-1.07-8.8-7.96-84.23-7.96-84.23-14.8-49.62 20.93-3.74z" clip-path="url(#w)" class="AX"/><path d="M834.84 608.72s.28 20.35 17.42 92.9c.47 2 .72 4.06.72 6.1v.27s4.6 7.75 9.98 2.63c0 0-.84-27.5 0-36.4s3.36-46.33-7.05-52.94c-10.42-6.6-21.07-12.57-21.07-12.57z" class="Ab"/><defs><path id="x" d="M834.84 608.72s.28 20.35 17.42 92.9c.47 2 .72 4.06.72 6.1v.27s4.6 7.75 9.98 2.63c0 0-.84-27.5 0-36.4s3.36-46.33-7.05-52.94c-10.42-6.6-21.07-12.57-21.07-12.57z"/></defs><clipPath id="y"><use xlink:href="#x"/></clipPath><path d="M851.95 623.93s10.97 78.23 3.66 88.47-19.3 7.76-19.3 7.76-1.6-8.58-.73-8.82-4.68-84.47-4.68-84.47-12.88-50.18 21.05-2.94z" clip-path="url(#y)" fill="#5acbe5"/><path d="M802.54 716.76c-1.43-.14-1.88-2-.66-2.77 3.85-2.4 10.54-5.93 18.2-7.14 12-1.9 13.45 8.04 12.28 10.53-.9 1.93-20.98.23-29.8-.62z" class="AV"/><defs><path id="z" d="M802.54 716.76c-1.43-.14-1.88-2-.66-2.77 3.85-2.4 10.54-5.93 18.2-7.14 12-1.9 13.45 8.04 12.28 10.53-.9 1.93-20.98.23-29.8-.62z"/></defs><clipPath id="AA"><use xlink:href="#z"/></clipPath><path d="M794.48 663.76l-11.7 23.93 2.34 28.37s16.67 8.04 18 8.06 2.5-6.75 2.5-6.75c3.93.27 7.9-.4 11.4-2.2 7.95-4.06 12.4-13.04 14.93-21.6-11.9-10.66-24.28-20.77-37.46-29.8z" clip-path="url(#AA)" class="AX"/><path d="M820.07 706.85s6.3-7.3 12.28-44.45c6-37.14 11.26-48.1 15.5-49.43s24.27 6.14 10.1 40.65c-12.06 29.33-22.53 49.58-25.4 55-.4.74-.72 1.52-1.04 2.3-.74 1.86-3.4 5.46-11.43-4.07z" class="Ab"/><defs><path id="AB" d="M820.07 706.85s6.3-7.3 12.28-44.45c6-37.14 11.26-48.1 15.5-49.43s24.27 6.14 10.1 40.65c-12.06 29.33-22.53 49.58-25.4 55-.4.74-.72 1.52-1.04 2.3-.74 1.86-3.4 5.46-11.43-4.07z"/></defs><clipPath id="AC"><use xlink:href="#AB"/></clipPath><use xlink:href="#M" clip-path="url(#AC)" class="Af"/><path d="M917.46 566.32s-53.52 8.04-82.62 42.4c0 0 16.5 27.78 42.6 29.7v-21.06s1.4-5.7 11.35-5.7 38.3-1.17 44.16-27.5c5.85-26.34-15.5-17.85-15.5-17.85z" class="AZ"/><defs><path id="AD" d="M917.46 566.32s-53.52 8.04-82.62 42.4c0 0 16.5 27.78 42.6 29.7v-21.06s1.4-5.7 11.35-5.7 38.3-1.17 44.16-27.5c5.85-26.34-15.5-17.85-15.5-17.85z"/></defs><clipPath id="AE"><use xlink:href="#AD"/></clipPath><use xlink:href="#M" clip-path="url(#AE)" class="Aj"/><path d="M815.37 433.13l34.4 33.16c5.4 5.26 38.6 15.35 38.6 15.35l-6.3 17.94-33.93-15.88c-4.03-1.9-7.44-4.87-9.85-8.62-3.7-5.77-9.73-14.83-15.38-21.97-1.7-2.15-3.98-3.78-6.6-4.64-4-1.32-9.73-4.42-7.03-11.04.83-2.04 2.87-7.4 6.08-4.3z" class="Ab"/><defs><path id="AF" d="M815.44 433.2l34.32 33.1c5.4 5.26 38.6 15.35 38.6 15.35l-6.3 17.94-33.93-15.88c-4.03-1.9-7.44-4.87-9.85-8.62-3.7-5.77-9.73-14.83-15.38-21.97-1.7-2.15-3.98-3.78-6.6-4.64-4-1.32-9.73-4.42-7.03-11.04.83-2.05 2.85-7.42 6.15-4.24z"/></defs><clipPath id="AG"><use xlink:href="#AF"/></clipPath><path d="M805.45 433.98c2.66.62 5.2 2.46 7.4 3.97a72.34 72.34 0 0 1 9.88 8.09c6.84 6.68 10.26 15.85 17.33 22.4 12.53 11.62 29.83 14.73 46.24 16.57 44.6 5-27.35 27.78-27.35 27.78L793.6 460l11.85-26.02z" clip-path="url(#AG)" class="Af"/><g class="Ab"><path d="M905.18 450.06s-4.68 40.36 19.3 24.7c23.98-15.64-19.3-24.7-19.3-24.7z"/><path d="M914.1 473.9c-.36.3 3.95 13.16.88 18s16.74 3.36 16.74 3.36l-2.56-16.87s-5.85-11.8-15.06-4.48z"/></g><path d="M929 497s-18.07-8.7-39.68-14.97c-3.55-1.03-7.5 0-9.8 2.9a8.12 8.12 0 0 0-1.42 2.71c-1.08 3.55-1.08 7.2 1.64 10.03 3.14 3.26 7.63 4.48 11.23 7.08 3.87 2.78 6.66 7.2 7.65 11.86 1.17 5.48-1.23 10.93.6 16.45 1.27 3.84 4.24 6.37 7.35 8.75 3.9 3 7.16 6.36 9.13 11.1 1.13 2.72 1.56 5.7.96 8.6-1 4.8-4.16 6.54-8.1 8.4-2.95 1.38-7.87 3.9-8.5 7.5 0 0 24.12 2.83 33.77 12.04s21.93-3.5 21.93-4.24 4.68-67.27 4.68-67.27L929 497z" class="AX"/><defs><path id="AH" d="M929 497s-18.07-8.7-39.68-14.97c-3.55-1.03-7.5 0-9.8 2.9a8.12 8.12 0 0 0-1.42 2.71c-1.08 3.55-1.08 7.2 1.64 10.03 3.14 3.26 7.63 4.48 11.23 7.08 3.87 2.78 6.66 7.2 7.65 11.86 1.17 5.48-1.23 10.93.6 16.45 1.27 3.84 4.24 6.37 7.35 8.75 3.9 3 7.16 6.36 9.13 11.1 1.13 2.72 1.56 5.7.96 8.6-1 4.8-4.16 6.54-8.1 8.4-2.95 1.38-7.87 3.9-8.5 7.5 0 0 24.12 2.83 33.77 12.04s21.93-3.5 21.93-4.24 4.68-67.27 4.68-67.27L929 497z"/></defs><clipPath id="AI"><use xlink:href="#AH"/></clipPath><path d="M905.9 429.42s-9.5 11.28 11.7 16.25c6.85 1.6 12.87 5.33 14.55 12.53 1.38 5.9.17 12.02.1 17.97-.07 5.4 1.83 9.7 4.3 14.4 2.9 5.55 4 11.34 2.4 17.44-1.57 6.04-4.78 11.6-8.2 16.76-3.7 5.56-5.86 11.88-6.12 18.56-.2 5.07.77 10.02 1.12 15.06.22 3.2-.04 6.55-1.63 9.33-1.45 2.53-3.9 4.37-6.53 5.62-5.44 2.58-11.63 2.86-17.53 4.03-13.17 2.6-25.2 9.95-33.7 20.32-8.75 10.67-15.02 23.27-20.02 36.07-3.36 8.62-6.74 17.37-8.52 26.47-1.85 9.48-2.6 19.16-4.7 28.58-2.17 9.77-6.7 21.54-16.15 26.37-3.52 1.8-7.48 2.46-11.4 2.2 0 0-1.17 6.77-2.5 6.75s-18-8.06-18-8.06l-2.34-28.37 50.74-103.83 23.98-20.03L877.44 466c0-.44 12.96-12.1 12.96-12.1l15.5-24.5z" clip-path="url(#AI)" class="Ac"/><path d="M913.8 462.78s-16.86-9.95-10.2-23.93c3.15-6.6 10.1-10.6 17.42-10.43 6.52.16 14.9 2.64 21.2 12.36 2.38 3.67 5.37 6.68 8.86 9.3 2.9 2.2 7.03 2.98 9.48 5.72 3.15 3.53 2.72 9.66 2.7 14.05-.03 5.25-.26 10.75 2 15.62 1.87 4.02 5.22 7.08 7.37 10.93 4.62 8.26 7.34 19.47.9 27.65-5.3 6.73-16.6 9.86-24.2 5.14-2.95-1.84-5.34-4.42-8.08-6.56-3.86-3-8.7-5.67-13.36-7.24-3.4-1.14-6.98-2.9-6.63-7.14.73-8.77 9.5-20.18-.15-33.05 0 0-3.77-4.26-.1-9.44 1.02-1.45 1.25-3.4.36-4.93-1-1.74-3.13-2.64-7.55 1.94z" class="AV"/><defs><path id="AJ" d="M913.8 462.78s-16.86-9.95-10.2-23.93c3.15-6.6 10.1-10.6 17.42-10.43 6.52.16 14.9 2.64 21.2 12.36 2.38 3.67 5.37 6.68 8.86 9.3 2.9 2.2 7.03 2.98 9.48 5.72 3.15 3.53 2.72 9.66 2.7 14.05-.03 5.25-.26 10.75 2 15.62 1.87 4.02 5.22 7.08 7.37 10.93 4.62 8.26 7.34 19.47.9 27.65-5.3 6.73-16.6 9.86-24.2 5.14-2.95-1.84-5.34-4.42-8.08-6.56-3.86-3-8.7-5.67-13.36-7.24-3.4-1.14-6.98-2.9-6.63-7.14.73-8.77 9.5-20.18-.15-33.05 0 0-3.77-4.26-.1-9.44 1.02-1.45 1.25-3.4.36-4.93-1-1.74-3.13-2.64-7.55 1.94z"/></defs><clipPath id="AK"><use xlink:href="#AJ"/></clipPath><path d="M891.87 483.4c0 .12-2.36 5.7-5.84 13.85 13.8 10.74 28.82 19.9 43.58 29.4.37-.63.75-1.25 1.15-1.87 3.42-5.16 6.64-10.73 8.2-16.76 1.58-6.1.5-11.9-2.4-17.44-2.47-4.72-4.38-9-4.3-14.4.08-5.95 1.28-12.08-.1-17.97-1.68-7.2-7.7-10.92-14.55-12.53-16.06-3.77-14.5-11.15-12.8-14.5l-14.4 22.75c.01 0 1.47 29.05 1.47 29.5z" clip-path="url(#AK)" class="Ah"/><path d="M908.4 618.8h8.34v93.88h-8.34z" class="AT"/><path d="M912.56 618.8h4.17v93.88h-4.17zm-35.02 99.82v-.37a5.56 5.56 0 0 1 5.56-5.56h59.37a5.56 5.56 0 0 1 5.56 5.56h0l-70.5.37z" class="Aa"/><defs><path id="AL" d="M877.54 718.62v-.37a5.56 5.56 0 0 1 5.56-5.56h59.37a5.56 5.56 0 0 1 5.56 5.56h0l-70.5.37z"/></defs><clipPath id="AM"><use xlink:href="#AL"/></clipPath><path d="M897.72 710.65c1.02.3 32.46 11.4 32.46 11.4s24.7-.6 25.15-1.32-2.34-12.72-2.34-12.72l-55.27 2.63z" clip-path="url(#AM)" class="AT"/><path d="M945.83 537.2s-8.77 1.04-9.36 22.83-4.1 32.28-12.3 40.34c0 0-10.17 11.1-37.1 11.34 0 0-8.54-.06-9.62 5.64v3.95h61.33c15.84 0 29.8-10.4 34.27-25.6 1.4-4.73 2.46-9.98 2.9-15.63 1.9-24.27 1.75-36.85 7.46-40.36l-1.46-2.5h-36.13z" class="Aa"/><defs><path id="AN" d="M945.83 537.2s-8.77 1.04-9.36 22.83-4.1 32.28-12.3 40.34c0 0-10.17 11.1-37.1 11.34 0 0-8.54-.06-9.62 5.64v3.95h61.33c15.84 0 29.8-10.4 34.27-25.6 1.4-4.73 2.46-9.98 2.9-15.63 1.9-24.27 1.75-36.85 7.46-40.36l-1.46-2.5h-36.13z"/></defs><clipPath id="AO"><use xlink:href="#AN"/></clipPath><g clip-path="url(#AO)"><path d="M977.33 537.88c-1 .05-2.4 1.6-3.02 2.23-3.27 3.18-5.66 7.3-7.72 11.32-4.02 7.82-6.7 16.13-9.16 24.54-2.52 8.63-3.97 17.7-7.72 25.93-5.66 12.4-16.5 20.5-29.9 22.76-35.4 6-26.18-4.4-24.86-4.97 1.32-.6 25.6-12.58 25.6-12.58l16.96-19.74 2.2-31.18c-.15-.4 4.68-16.34 4.68-16.34l9.65-.88 23.3-1.1z" class="AT"/><path d="M897.57 623.93s31.64.13 40.64-35.15c1-3.9 1.44-7.94 1.5-11.98.15-10.43 1.24-35.63 8.3-36.2 8.92-.73 35.4-.88 35.4-.88l3.8-7.46-49.28 2.78-64.34 72.82-6.73 19 30.7-2.93z" fill="#e6f0ff"/></g><path d="M401.32 508.27h-54.6c-2.98 0-5.4-2.4-5.4-5.4v-56.7c0-2.98 2.4-5.4 5.4-5.4h54.6c2.98 0 5.4 2.4 5.4 5.4v56.7c0 2.98-2.4 5.4-5.4 5.4z" class="AZ"/><defs><path id="AP" d="M401.32 508.27h-54.6c-2.98 0-5.4-2.4-5.4-5.4v-56.7c0-2.98 2.4-5.4 5.4-5.4h54.6c2.98 0 5.4 2.4 5.4 5.4v56.7c0 2.98-2.4 5.4-5.4 5.4z"/></defs><clipPath id="AQ"><use xlink:href="#AP"/></clipPath><path d="M414.87 500.53s-4.97-19.26-47-27.92-9.15-24.5-41.15-35.26c-20.44-6.87 21.1-5.84 53.78-4.2 21.15 1.06 40.28 12.88 50.66 31.34h0l-16.3 36.04z" clip-path="url(#AQ)" class="Ak"/><use xlink:href="#N" class="AQ"/><use xlink:href="#O" stroke="#051d2b" class="AR AS AW Ap"/><path d="M375.23 481.6a7.18 7.18 0 0 1-8.28-8.28c.5-2.97 2.88-5.36 5.85-5.85a7.18 7.18 0 0 1 8.28 8.28c-.48 2.97-2.88 5.36-5.85 5.85z" class="AQ"/><use xlink:href="#P" class="AZ"/><defs><path id="AR" d="M588.03 508.27h-54.6c-2.98 0-5.4-2.4-5.4-5.4v-56.7c0-2.98 2.4-5.4 5.4-5.4h54.6c2.98 0 5.4 2.4 5.4 5.4v56.7a5.4 5.4 0 0 1-5.39 5.39z"/></defs><clipPath id="AS"><use xlink:href="#AR"/></clipPath><path d="M601.57 500.53s-4.97-19.26-47-27.92c-42.04-8.66-9.15-24.5-41.15-35.26-20.44-6.87 21.1-5.84 53.78-4.2 21.15 1.06 40.28 12.88 50.66 31.34h0l-16.3 36.04z" clip-path="url(#AS)" class="Ak"/><use xlink:href="#N" x="186.7" class="AQ"/><use xlink:href="#O" x="186.7" stroke="#051d2b" class="AR AS AW Ap"/><path d="M561.94 481.6a7.18 7.18 0 0 1-8.28-8.28c.5-2.97 2.88-5.36 5.85-5.85a7.18 7.18 0 0 1 8.28 8.28c-.5 2.97-2.9 5.36-5.85 5.85z" class="AQ"/><use xlink:href="#P" x="-94" class="AV"/><defs><path id="AT" d="M494.03 508.27h-54.6c-2.98 0-5.4-2.4-5.4-5.4v-56.7c0-2.98 2.4-5.4 5.4-5.4h54.6c2.98 0 5.4 2.4 5.4 5.4v56.7a5.4 5.4 0 0 1-5.39 5.39z"/></defs><clipPath id="AU"><use xlink:href="#AT"/></clipPath><linearGradient id="AV" gradientUnits="userSpaceOnUse" x1="413.979" y1="466.236" x2="523.852" y2="466.236"><stop offset="0" stop-color="#fff"/><stop offset=".997" stop-color="#b9d1f6"/></linearGradient><path d="M507.57 500.53s-4.97-19.26-47-27.92-9.15-24.5-41.15-35.26c-20.44-6.87 21.1-5.84 53.78-4.2 21.15 1.06 40.28 12.88 50.66 31.34h0l-16.3 36.04z" clip-path="url(#AU)" fill="url(#AV)" class="AU"/><path d="M596.03 305.67H342.86c-1.56 0-2.83-1.27-2.83-2.83v-18.3c0-1.56 1.27-2.83 2.83-2.83h253.17c1.56 0 2.83 1.27 2.83 2.83v18.3c0 1.56-1.27 2.83-2.83 2.83z" class="Aa"/><path d="M493.56 398.7l-61.87-11.1c-6.32-1.13-10.52-7.18-9.4-13.5l12.68-70.6c1.13-6.32 7.18-10.52 13.5-9.4l61.87 11.1c6.32 1.13 10.52 7.18 9.4 13.5l-12.68 70.6a11.64 11.64 0 0 1-13.5 9.39z" class="AT"/><defs><path id="AW" d="M493.56 398.7l-61.87-11.1c-6.32-1.13-10.52-7.18-9.4-13.5l12.68-70.6c1.13-6.32 7.18-10.52 13.5-9.4l61.87 11.1c6.32 1.13 10.52 7.18 9.4 13.5l-12.68 70.6a11.64 11.64 0 0 1-13.5 9.39z"/></defs><clipPath id="AX"><use xlink:href="#AW"/></clipPath><linearGradient id="AY" gradientUnits="userSpaceOnUse" x1="403.507" y1="328.847" x2="524.177" y2="350.509"><stop offset="0" stop-color="#fff"/><stop offset=".997" stop-color="#b9d1f6"/></linearGradient><path d="M425.84 268.03s-1.98 37.82 33.97 55.94c42.83 21.6 13.73 34.52 42.3 61.07 58.95 54.74-108.7-.1-108.7-.1l32.42-116.9z" clip-path="url(#AX)" fill="url(#AY)" class="AU"/><path d="M476.96 127.9h2.4v167.06h-2.4z" class="AQ"/><path d="M469.36 128.9a8.8 8.8 0 0 0 17.6 0 8.8 8.8 0 0 0-17.6 0zm1.24 169.26c0 4.17 3.38 7.56 7.56 7.56 4.17 0 7.56-3.38 7.56-7.56 0-4.17-3.38-7.56-7.56-7.56a7.57 7.57 0 0 0-7.56 7.56z" class="Ac"/><path d="M554.24 128.06a8.67 8.67 0 1 1-8.67-8.67c4.8-.01 8.67 3.88 8.67 8.67zM776.22 76c0 7.42-6.02 13.44-13.44 13.44a13.44 13.44 0 0 1 0-26.88A13.46 13.46 0 0 1 776.22 76zm-91.67 89.6a15.68 15.68 0 0 1-15.67 15.67 15.68 15.68 0 0 1-15.67-15.67 15.68 15.68 0 0 1 15.67-15.67 15.68 15.68 0 0 1 15.67 15.67z" class="Aa"/><g class="Ac"><path d="M222.33 163.7h46.28v505.55h-46.28V163.7zm41.55 4.73h-36.82V664.5h36.82V168.42z"/><use xlink:href="#Q"/><use xlink:href="#Q" y="43.7"/><use xlink:href="#Q" y="87.4"/><path d="M224.45 566h41c.94 0 1.8-.56 2.17-1.42a2.35 2.35 0 0 0-.43-2.55l-39.42-42.57-3.47 3.2 35.74 38.6h-35.58V566z"/><path d="M224.45 606.03h41c.94 0 1.8-.56 2.17-1.42a2.35 2.35 0 0 0-.43-2.55l-39.42-40.6-3.47 3.2 35.74 36.63h-35.58v4.73z"/><use xlink:href="#Q" y="214.83"/><use xlink:href="#Q" y="-42.67"/><use xlink:href="#Q" y="-85.4"/><use xlink:href="#Q" y="-128.05"/><use xlink:href="#Q" y="-170.7"/><path d="M224.45 221.54h41c.94 0 1.8-.56 2.17-1.42a2.35 2.35 0 0 0-.43-2.55L227.77 175l-3.47 3.2 35.74 38.6h-35.58v4.73z"/></g><path d="M267.78 117.86h-48.25a8.7 8.7 0 0 0-8.7 8.7v55c0 3.66 2.97 6.63 6.63 6.63h52.4c3.66 0 6.63-2.97 6.63-6.63v-55c0-4.8-3.9-8.7-8.7-8.7z" class="AZ"/><defs><path id="AZ" d="M268.68 117.86h-50.06a7.8 7.8 0 0 0-7.8 7.8v56.8a5.73 5.73 0 0 0 5.73 5.73h54.2a5.73 5.73 0 0 0 5.73-5.73v-56.8c.01-4.3-3.48-7.8-7.8-7.8z"/></defs><clipPath id="Aa"><use xlink:href="#AZ"/></clipPath><path d="M200.15 123.1s4.63 19.04 45.92 28.15 8.67 24.25 40.06 35.3-86.68.9-86.68.9l-15.83-29.07 16.53-35.28z" clip-path="url(#Aa)" class="Ak"/><g class="AX"><path d="M128.65 120.12H499.2a2.37 2.37 0 1 0 0-4.74H128.65a2.37 2.37 0 1 0 0 4.74z"/><path d="M277.38 119.5a1.2 1.2 0 0 0 .84-.35l19.76-19.76h181.14l18.58 18.58c.46.46 1.2.46 1.67 0s.46-1.2 0-1.67L480.1 97.03H297l-20.45 20.45c-.46.46-.46 1.2 0 1.67a1.12 1.12 0 0 0 .83.35zm-150.3 0a1.18 1.18 0 0 0 1.05-.63L147.9 81.1h47.95l18.6 36.58c.3.58 1 .8 1.6.52.58-.3.8-1 .52-1.6L197.3 78.74h-50.83l-20.44 39.04a1.19 1.19 0 0 0 .5 1.6c.18.08.37.12.55.12z"/><path d="M429.52 99.38c.5 0 .98-.33 1.13-.84.2-.62-.16-1.3-.8-1.48l-175.1-53.4c-.27-.08-.55-.07-.8.04l-83 35.03c-.6.25-.88.95-.63 1.55s.95.88 1.55.63l82.6-34.86 174.7 53.27c.1.04.23.05.34.05z"/><path d="M281.97 119.66c.28 0 .56-.05.84-.16 1.22-.46 1.83-1.83 1.37-3.05L256.6 43.9c-.37-.98-1.34-1.6-2.4-1.52a2.36 2.36 0 0 0-2.12 1.89l-14.25 70.76a2.37 2.37 0 0 0 1.85 2.79c1.28.25 2.53-.57 2.8-1.85l12.63-62.72 24.66 64.9c.35.94 1.25 1.52 2.2 1.52z"/><use xlink:href="#R"/><use xlink:href="#S"/><use xlink:href="#S" x="-22.46"/><use xlink:href="#R" x="-67.38"/><use xlink:href="#T"/><use xlink:href="#T" x="-22.46"/><path d="M319.7 119.73c.26 0 .52-.1.74-.26l23.23-18.77v17.55c0 .65.53 1.18 1.18 1.18s1.18-.53 1.18-1.18V98.22c0-.46-.26-.87-.67-1.07s-.9-.14-1.25.15l-25.15 20.33a1.18 1.18 0 0 0-.18 1.66c.24.3.58.44.92.44z"/><use xlink:href="#S" x="-134.75"/><path d="M164.48 119.73a1.15 1.15 0 0 0 .9-.42l30.16-35.6v34.53c0 .65.53 1.18 1.18 1.18s1.18-.53 1.18-1.18V80.5c0-.5-.3-.94-.78-1.1a1.18 1.18 0 0 0-1.31.35l-32.25 38.06c-.42.5-.36 1.24.14 1.67.23.18.5.27.78.27z"/><path d="M141.28 119.73c.38 0 .76-.2 1-.53l22.98-34.78v33.82c0 .65.53 1.18 1.18 1.18s1.18-.53 1.18-1.18V80.5a1.18 1.18 0 0 0-.84-1.13 1.19 1.19 0 0 0-1.33.48L140.3 117.9c-.36.55-.2 1.28.33 1.64a1.23 1.23 0 0 0 .66.19z"/></g><path d="M193.72 120.07h-60.97a4.6 4.6 0 0 0-4.6 4.6v19.8a4.6 4.6 0 0 0 4.6 4.6h60.97a4.6 4.6 0 0 0 4.6-4.6v-19.8a4.6 4.6 0 0 0-4.6-4.6z" class="AT"/><defs><path id="Ab" d="M194 120.07h-61.55a4.31 4.31 0 0 0-4.31 4.31v20.38a4.31 4.31 0 0 0 4.31 4.31H194a4.31 4.31 0 0 0 4.31-4.31v-20.38a4.31 4.31 0 0 0-4.31-4.31z"/></defs><clipPath id="Ac"><use xlink:href="#Ab"/></clipPath><linearGradient id="Ad" gradientUnits="userSpaceOnUse" x1="97.541" y1="149.791" x2="226.101" y2="149.791"><stop offset="0" stop-color="#fff"/><stop offset=".997" stop-color="#b9d1f6"/></linearGradient><path d="M97.54 129.05s22.37 13.57 54.56 7.1c38.35-7.7 29.45 4.33 62.6 5.92 49 2.36-75.74 28.46-75.74 28.46l-41.42-41.5z" clip-path="url(#Ac)" fill="url(#Ad)" class="AU"/><path d="M268.8 643.37h-47.54a4.4 4.4 0 0 0-4.4 4.4v42.36c0 4.98 4.04 9.02 9.02 9.02h38.3c4.98 0 9.02-4.04 9.02-9.02v-42.36a4.4 4.4 0 0 0-4.4-4.4z" class="AT"/><defs><path id="Ae" d="M268.8 643.37h-47.54a4.4 4.4 0 0 0-4.4 4.4v42.36c0 4.98 4.04 9.02 9.02 9.02h38.3c4.98 0 9.02-4.04 9.02-9.02v-42.36a4.4 4.4 0 0 0-4.4-4.4z"/></defs><clipPath id="Af"><use xlink:href="#Ae"/></clipPath><linearGradient id="Ag" gradientUnits="userSpaceOnUse" x1="233.677" y1="673.529" x2="240.714" y2="688.933"><stop offset="0" stop-color="#fff"/><stop offset=".997" stop-color="#b9d1f6"/></linearGradient><path d="M207.7 643.3s3.97 16.34 39.4 24.15 7.44 20.8 34.37 30.28-74.38.78-74.38.78l-13.58-24.95 14.2-30.26z" clip-path="url(#Af)" fill="url(#Ag)" class="AU"/><path d="M293.96 717.65H193.93a3.06 3.06 0 0 1-3.06-3.06v-16.34a3.06 3.06 0 0 1 3.06-3.06h100.03a3.06 3.06 0 0 1 3.06 3.06v16.34a3.06 3.06 0 0 1-3.06 3.06z" class="AX"/><defs><path id="Ah" d="M293.96 717.65H193.93a3.06 3.06 0 0 1-3.06-3.06v-16.34a3.06 3.06 0 0 1 3.06-3.06h100.03a3.06 3.06 0 0 1 3.06 3.06v16.34a3.06 3.06 0 0 1-3.06 3.06z"/></defs><clipPath id="Ai"><use xlink:href="#Ah"/></clipPath><path d="M184.16 692.67s9.86 11.08 57.53 9.56 15.6 13.63 52.87 15.05-95.05 15.7-95.05 15.7l-24.68-15.4 9.33-24.9z" clip-path="url(#Ai)" class="AV"/><circle transform="matrix(.9611 -.276 .276 .9611 -3.098 72.6327)" cx="256.46" cy="47.32" r="12.05" class="Af"/><defs><circle id="Aj" transform="matrix(.9611 -.276 .276 .9611 -3.098 72.6327)" cx="256.46" cy="47.32" r="12.05"/></defs><clipPath id="Ak"><use xlink:href="#Aj"/></clipPath><path d="M249.65 58.06c.03.03.72 1.9 1.73 4.66 5.76-.53 11.45-1.73 17.17-2.78-.05-.24-.1-.47-.14-.7-.34-2.02-.83-4.1-1.82-5.9-1-1.83-2.57-2.98-4.53-3.66-1.67-.58-3.1-1.18-4.3-2.5-1.33-1.45-2.43-3.2-4.1-4.3-2.04-1.35-4.33-.9-6.35.27-4.73 2.73-6.02.6-6.37-.6l1.68 8.75c-.01 0 6.92 6.67 7.02 6.78z" clip-path="url(#Ak)" class="Ab"/><defs><path id="Al" d="M727.28 346.86h-70.12c-3.66 0-6.63-2.97-6.63-6.63v-42.98c0-3.66 2.97-6.63 6.63-6.63h70.12c3.66 0 6.63 2.97 6.63 6.63v42.98c0 3.66-2.97 6.63-6.63 6.63z"/></defs><use xlink:href="#Al" class="AQ"/><clipPath id="Am"><use xlink:href="#Al"/></clipPath><linearGradient id="An" gradientUnits="userSpaceOnUse" x1="702.253" y1="303.068" x2="639.179" y2="352.722"><stop offset="0" stop-color="#fff"/><stop offset=".01" stop-color="#fdfdff"/><stop offset=".132" stop-color="#e4edfc"/><stop offset=".268" stop-color="#d1e1f9"/><stop offset=".426" stop-color="#c3d8f7"/><stop offset=".626" stop-color="#bbd3f6"/><stop offset=".997" stop-color="#b9d1f6"/></linearGradient><use xlink:href="#U" opacity=".5" clip-path="url(#Am)" fill="url(#An)"/><use xlink:href="#V" class="AZ"/><defs><path id="Ao" d="M705.8 314.07c0 7.5-6.07 13.57-13.57 13.57-7.5 0-13.57-6.07-13.57-13.57 0-7.5 6.07-13.57 13.57-13.57s13.57 6.07 13.57 13.57z"/></defs><clipPath id="Ap"><use xlink:href="#Ao"/></clipPath><use xlink:href="#U" clip-path="url(#Ap)" class="Aj"/><use xlink:href="#W" class="AQ"/><defs><path id="Aq" d="M689.47 314.07v-6.35l4.45 3.17 4.45 3.18-4.45 3.17-4.45 3.18z"/></defs><clipPath id="Ar"><use xlink:href="#Aq"/></clipPath><linearGradient id="As" gradientUnits="userSpaceOnUse" x1="614.922" y1="318.738" x2="733.913" y2="318.738"><stop offset="0" stop-color="#fff"/><stop offset=".997" stop-color="#b9d1f6"/></linearGradient><use xlink:href="#U" clip-path="url(#Ar)" fill="url(#As)" class="AU"/><g class="AR AS AW AY"><path d="M658.92 337.25h66.6" class="Al Am"/><path d="M658.92 337.25h22.06" stroke="#d41f26" class="An"/></g><defs><path id="At" d="M833.1 346.86h-70.12c-3.66 0-6.63-2.97-6.63-6.63v-42.98c0-3.66 2.97-6.63 6.63-6.63h70.12c3.66 0 6.63 2.97 6.63 6.63v42.98c0 3.66-2.96 6.63-6.63 6.63z"/></defs><use xlink:href="#At" class="Af"/><clipPath id="Au"><use xlink:href="#At"/></clipPath><path d="M739.83 278.03s4.74 22.92 50.37 33.07c45.63 10.14 9.12 29.14 43.7 41.83s-96.2 2.93-96.2 2.93l-16.95-34.82 19.08-43z" clip-path="url(#Au)" class="Ab"/><use xlink:href="#V" x="105.8" class="AX"/><defs><path id="Av" d="M811.6 314.07c0 7.5-6.07 13.57-13.57 13.57-7.5 0-13.57-6.07-13.57-13.57 0-7.5 6.07-13.57 13.57-13.57s13.57 6.07 13.57 13.57z"/></defs><clipPath id="Aw"><use xlink:href="#Av"/></clipPath><path d="M739.83 278.03s4.74 22.92 50.37 33.07c45.63 10.14 9.12 29.14 43.7 41.83s-96.2 2.93-96.2 2.93l-16.95-34.82 19.08-43z" clip-path="url(#Aw)" class="AV"/><use xlink:href="#W" x="105.83" class="AQ"/><defs><path id="Ax" d="M795.3 314.07v-6.35l4.45 3.17 4.45 3.18-4.45 3.17-4.45 3.18z"/></defs><clipPath id="Ay"><use xlink:href="#Ax"/></clipPath><linearGradient id="Az" gradientUnits="userSpaceOnUse" x1="720.742" y1="318.738" x2="839.733" y2="318.738"><stop offset="0" stop-color="#fff"/><stop offset=".997" stop-color="#b9d1f6"/></linearGradient><path d="M739.83 278.03s4.74 22.92 50.37 33.07c45.63 10.14 9.12 29.14 43.7 41.83s-96.2 2.93-96.2 2.93l-16.95-34.82 19.08-43z" clip-path="url(#Ay)" fill="url(#Az)" class="AU"/><g class="AR AS AW AY"><path d="M766.26 337.25h66.6" class="Al Am"/><path d="M766.26 337.25h22.05" class="Ad An"/></g><defs><path id="BA" d="M938.92 346.86H868.8c-3.66 0-6.63-2.97-6.63-6.63v-42.98c0-3.66 2.97-6.63 6.63-6.63h70.12c3.66 0 6.63 2.97 6.63 6.63v42.98c0 3.66-2.96 6.63-6.63 6.63z"/></defs><use xlink:href="#BA" class="AQ"/><clipPath id="BB"><use xlink:href="#BA"/></clipPath><linearGradient id="BC" gradientUnits="userSpaceOnUse" x1="913.893" y1="303.068" x2="850.819" y2="352.722"><stop offset="0" stop-color="#fff"/><stop offset=".01" stop-color="#fdfdff"/><stop offset=".132" stop-color="#e4edfc"/><stop offset=".268" stop-color="#d1e1f9"/><stop offset=".426" stop-color="#c3d8f7"/><stop offset=".626" stop-color="#bbd3f6"/><stop offset=".997" stop-color="#b9d1f6"/></linearGradient><path d="M845.65 278.03s4.74 22.92 50.37 33.07c45.63 10.14 9.12 29.14 43.7 41.83s-96.2 2.93-96.2 2.93l-16.95-34.82 19.08-43z" opacity=".5" clip-path="url(#BB)" fill="url(#BC)"/><use xlink:href="#V" x="211.63" class="AZ"/><defs><path id="BD" d="M917.43 314.07c0 7.5-6.07 13.57-13.57 13.57-7.5 0-13.57-6.07-13.57-13.57 0-7.5 6.07-13.57 13.57-13.57s13.57 6.07 13.57 13.57z"/></defs><clipPath id="BE"><use xlink:href="#BD"/></clipPath><path d="M845.65 278.03s4.74 22.92 50.37 33.07c45.63 10.14 9.12 29.14 43.7 41.83s-96.2 2.93-96.2 2.93l-16.95-34.82 19.08-43z" clip-path="url(#BE)" class="Aj"/><use xlink:href="#W" x="211.63" class="AQ"/><defs><path id="BF" d="M901.1 314.07v-6.35l4.45 3.17 4.45 3.18-4.45 3.17-4.45 3.18z"/></defs><clipPath id="BG"><use xlink:href="#BF"/></clipPath><linearGradient id="BH" gradientUnits="userSpaceOnUse" x1="826.563" y1="318.738" x2="945.553" y2="318.738"><stop offset="0" stop-color="#fff"/><stop offset=".997" stop-color="#b9d1f6"/></linearGradient><path d="M845.65 278.03s4.74 22.92 50.37 33.07c45.63 10.14 9.12 29.14 43.7 41.83s-96.2 2.93-96.2 2.93l-16.95-34.82 19.08-43z" clip-path="url(#BG)" fill="url(#BH)" class="AU"/><g class="AR AS AW AY"><path d="M870.56 337.25h66.6" class="Al Am"/><path d="M870.56 337.25h22.06" stroke="#d41f26" class="An"/></g><path d="M1010.07 139.55H821.93c-10.2 0-18.45-8.26-18.45-18.45h0c0-10.2 8.26-18.45 18.45-18.45h188.14c10.2 0 18.45 8.26 18.45 18.45h0c0 10.2-8.26 18.45-18.45 18.45z" class="AV"/><path d="M1010.07 139.55h-11.13c-10.2 0-18.45-8.26-18.45-18.45h0c0-10.2 8.26-18.45 18.45-18.45h11.13c10.2 0 18.45 8.26 18.45 18.45h0c0 10.2-8.26 18.45-18.45 18.45z" class="AZ"/><path d="M1014.92 129l-6.06-6.06c2.34-3.05 2.15-7.44-.65-10.23-3.04-3.04-8-3.04-11.03 0s-3.04 8 0 11.03c1.47 1.47 3.43 2.3 5.5 2.3 1.74 0 3.37-.6 4.72-1.64l6.06 6.06c.4.4 1.04.4 1.44 0h0c.4-.4.4-1.06.01-1.45zm-16.3-6.7c-2.24-2.25-2.24-5.9 0-8.15 1.12-1.12 2.6-1.68 4.07-1.68a5.77 5.77 0 0 1 4.08 1.68c2.24 2.25 2.24 5.9 0 8.15-2.18 2.17-5.97 2.17-8.15 0z" class="AQ"/><defs><path id="BI" d="M1010.07 139.55H821.93c-10.2 0-18.45-8.26-18.45-18.45h0c0-10.2 8.26-18.45 18.45-18.45h188.14c10.2 0 18.45 8.26 18.45 18.45h0c0 10.2-8.26 18.45-18.45 18.45z"/></defs><clipPath id="BJ"><use xlink:href="#BI"/></clipPath><linearGradient id="BK" gradientUnits="userSpaceOnUse" x1="708.703" y1="146.357" x2="1087.465" y2="146.357"><stop offset="0" stop-color="#fff"/><stop offset=".01" stop-color="#fdfdff"/><stop offset=".132" stop-color="#e4edfc"/><stop offset=".268" stop-color="#d1e1f9"/><stop offset=".426" stop-color="#c3d8f7"/><stop offset=".626" stop-color="#bbd3f6"/><stop offset=".997" stop-color="#b9d1f6"/></linearGradient><path d="M745.2 58.8s27.98 62.85 170 65.35c142 2.5 44.77 78.1 155.47 94.3 110.7 16.2-361.96 15.44-361.96 15.44l36.5-175.1z" opacity=".42" clip-path="url(#BJ)" fill="url(#BK)"/><path d="M864.03 123.8c0-.54-.2-1-.6-1.35s-1.13-.67-2.16-.92c-1.25-.3-2.23-.74-2.93-1.32s-1.05-1.3-1.05-2.2c0-.93.38-1.7 1.13-2.32.76-.62 1.74-.93 2.94-.93 1.3 0 2.33.36 3.1 1.07.77.7 1.14 1.54 1.1 2.47l-.02.05H864c0-.7-.23-1.26-.7-1.68-.46-.43-1.12-.64-1.97-.64-.8 0-1.4.18-1.83.54a1.74 1.74 0 0 0-.64 1.4c0 .52.23.95.7 1.3s1.2.65 2.25.9c1.25.3 2.2.77 2.85 1.37a2.93 2.93 0 0 1 .98 2.24 2.73 2.73 0 0 1-1.17 2.3c-.78.58-1.8.87-3.06.87-1.18 0-2.23-.32-3.14-.96s-1.35-1.5-1.32-2.58l.02-.05h1.53c0 .76.28 1.34.84 1.73.56.4 1.25.6 2.07.6.8 0 1.45-.17 1.92-.5a1.64 1.64 0 0 0 .7-1.39zm16.3-2.5h-5.43v4.23h6.26v1.26h-7.86v-11.84h7.77v1.26h-6.17v3.83h5.43v1.26zm14.47 2.44h-4.96l-1.12 3.05h-1.63l4.58-11.84h1.38l4.5 11.84h-1.64l-1.12-3.05zm-4.47-1.34h4l-1.95-5.4h-.05l-2 5.4zm15.77-.74v5.13h-1.6v-11.84h4.3c1.3 0 2.3.3 2.97.86s1.02 1.4 1.02 2.5c0 .6-.16 1.14-.48 1.6s-.78.8-1.4 1.07c.65.2 1.12.56 1.4 1.03.3.47.43 1.06.43 1.76v1.1a3.73 3.73 0 0 0 .12.99 1.53 1.53 0 0 0 .42.72v.2h-1.65c-.2-.18-.35-.46-.4-.8a6.74 6.74 0 0 1-.09-1.11v-1.08c0-.64-.2-1.16-.56-1.55-.38-.4-.88-.6-1.5-.6h-2.96zm0-1.26h2.52c.9 0 1.56-.17 1.96-.52.4-.34.6-.87.6-1.57 0-.66-.2-1.18-.58-1.55s-1-.55-1.8-.55h-2.68v4.2zm23.13 2.6l.02.05a3.62 3.62 0 0 1-1.17 2.8c-.8.76-1.86 1.13-3.18 1.13-1.34 0-2.43-.47-3.27-1.42s-1.26-2.15-1.26-3.6v-2.1c0-1.46.42-2.66 1.26-3.62.84-.95 1.93-1.43 3.27-1.43s2.4.36 3.2 1.07 1.18 1.66 1.16 2.84l-.02.05h-1.54c0-.83-.24-1.5-.73-1.97s-1.18-.72-2.07-.72a2.54 2.54 0 0 0-2.14 1.08c-.54.72-.8 1.6-.8 2.68v2.12c0 1.08.27 1.98.8 2.7s1.24 1.08 2.14 1.08 1.58-.24 2.07-.72.73-1.14.73-2h1.53zm16.47 3.8h-1.6v-5.23h-5.75v5.23h-1.6v-11.84h1.6v5.35h5.75v-5.35h1.6v11.84z" class="AQ"/><path d="M650.54 525.93V379.57a7.8 7.8 0 0 1 7.8-7.8h46.77a7.8 7.8 0 0 1 7.8 7.8v146.35a7.8 7.8 0 0 1-7.8 7.8h-46.77c-4.3.01-7.8-3.48-7.8-7.8z" class="Af"/><path d="M193.32 445.23h0c1.64-1.22 1.88-3.55.6-5.14-1.4-1.73-3-3.32-4.73-4.73-1.6-1.3-3.92-1.05-5.14.6h0c-1.02 1.37-2.85 1.78-4.4 1.06l-1.9-.8c-1.6-.6-2.6-2.17-2.36-3.86v-.02c.3-2.02-1.17-3.83-3.2-4.05-1.1-.12-2.23-.18-3.37-.18s-2.26.06-3.37.18c-2.03.22-3.5 2.03-3.2 4.05v.02c.25 1.7-.76 3.27-2.36 3.86l-1.9.8c-1.55.72-3.38.3-4.4-1.06h0c-1.22-1.64-3.55-1.88-5.14-.6-1.73 1.4-3.32 3-4.73 4.73-1.3 1.6-1.05 3.92.6 5.14h0c1.37 1.02 1.78 2.85 1.06 4.4l-.8 1.9c-.6 1.6-2.17 2.6-3.86 2.36h-.02c-2.02-.3-3.83 1.17-4.05 3.2-.12 1.1-.18 2.23-.18 3.37s.06 2.26.18 3.37c.22 2.03 2.03 3.5 4.05 3.2h.02c1.7-.25 3.27.76 3.86 2.36l.8 1.9c.72 1.55.3 3.38-1.06 4.4h0c-1.64 1.22-1.88 3.55-.6 5.14 1.4 1.73 3 3.32 4.73 4.73 1.6 1.3 3.92 1.05 5.14-.6h0c1.02-1.37 2.85-1.78 4.4-1.06l1.9.8c1.6.6 2.6 2.17 2.36 3.86v.02c-.3 2.02 1.17 3.83 3.2 4.05 1.1.12 2.23.18 3.37.18s2.26-.06 3.37-.18c2.03-.22 3.5-2.03 3.2-4.05v-.02c-.25-1.7.76-3.27 2.36-3.86l1.9-.8c1.55-.72 3.38-.3 4.4 1.06h0c1.22 1.64 3.55 1.88 5.14.6 1.73-1.4 3.32-3 4.73-4.73 1.3-1.6 1.05-3.92-.6-5.14h0c-1.37-1.02-1.78-2.85-1.06-4.4l.8-1.9c.6-1.6 2.17-2.6 3.86-2.36h.02c2.02.3 3.83-1.17 4.05-3.2.12-1.1.18-2.23.18-3.37s-.06-2.26-.18-3.37c-.22-2.03-2.03-3.5-4.05-3.2h-.02c-1.7.25-3.27-.76-3.86-2.36l-.8-1.9c-.72-1.55-.3-3.38 1.06-4.4zm-21.84 30.8c-10.8 1.77-20.03-7.44-18.25-18.25 1.07-6.55 6.35-11.83 12.9-12.9 10.8-1.77 20.03 7.44 18.25 18.25-1.07 6.55-6.35 11.83-12.9 12.9z" class="Ae"/><path d="M172.47 481.8c-14.8 2.43-27.43-10.2-25-25 1.47-8.97 8.7-16.2 17.67-17.67 14.8-2.43 27.43 10.2 25 25-1.47 8.97-8.7 16.2-17.67 17.67z" stroke-width="1.208" class="AS AW Ad"/><path d="M170.35 469.45a9.13 9.13 0 0 1-10.54-10.54 9.12 9.12 0 0 1 7.45-7.45c6.24-1.02 11.57 4.3 10.54 10.54a9.11 9.11 0 0 1-7.45 7.45z" class="Ae"/><path d="M657.3 79.6h0c1.2-.9 1.4-2.58.46-3.74a24.4 24.4 0 0 0-3.52-3.52c-1.15-.93-2.85-.73-3.73.46h0c-.75 1-2.1 1.3-3.22.78l-1.4-.58c-1.17-.43-1.9-1.6-1.72-2.83v-.02c.2-1.45-.8-2.8-2.27-2.96-.83-.1-1.68-.14-2.54-.14s-1.7.05-2.54.14c-1.46.16-2.48 1.5-2.27 2.96v.02c.18 1.23-.55 2.4-1.72 2.83l-1.4.58c-1.13.52-2.48.23-3.22-.78h0c-.9-1.2-2.58-1.4-3.73-.46a24.4 24.4 0 0 0-3.52 3.52c-.93 1.15-.73 2.85.46 3.73h0c1 .75 1.3 2.1.78 3.22l-.58 1.4c-.43 1.17-1.6 1.9-2.83 1.72h-.02c-1.45-.2-2.8.8-2.96 2.27-.1.83-.14 1.68-.14 2.54s.05 1.7.14 2.54c.16 1.46 1.5 2.48 2.96 2.27h.02c1.23-.18 2.4.55 2.83 1.72l.58 1.4c.52 1.13.23 2.48-.78 3.22h0c-1.2.9-1.4 2.58-.46 3.73a24.4 24.4 0 0 0 3.52 3.52c1.15.93 2.85.73 3.73-.46h0c.75-1 2.1-1.3 3.22-.78l1.4.58c1.17.43 1.9 1.6 1.72 2.83v.02c-.2 1.45.8 2.8 2.27 2.96.83.1 1.68.14 2.54.14s1.7-.05 2.54-.14c1.46-.16 2.48-1.5 2.27-2.96v-.02c-.18-1.23.55-2.4 1.72-2.83l1.4-.58c1.13-.53 2.48-.23 3.22.78h0c.9 1.2 2.58 1.4 3.73.46a24.4 24.4 0 0 0 3.52-3.52c.93-1.15.73-2.85-.46-3.73h0c-1-.75-1.3-2.1-.78-3.22l.58-1.4c.43-1.17 1.6-1.9 2.83-1.72h.02c1.45.2 2.8-.8 2.96-2.27.1-.83.14-1.68.14-2.54s-.05-1.7-.14-2.54c-.16-1.46-1.5-2.48-2.96-2.27h-.02c-1.23.18-2.4-.55-2.83-1.72l-.58-1.4c-.53-1.12-.23-2.46.78-3.2zm-16.32 23.63c-8.23 1.04-15.15-5.88-14.1-14.1.7-5.6 5.23-10.13 10.84-10.84 8.23-1.04 15.15 5.88 14.1 14.1-.7 5.6-5.23 10.14-10.84 10.84z" fill="#a3bfe8"/><g class="AT"><use xlink:href="#X"/><use xlink:href="#Y"/><use xlink:href="#Z"/><use xlink:href="#X" x="-186.92"/><use xlink:href="#Y" x="-186.92"/><use xlink:href="#Z" x="-186.9"/></g><path d="M341.33 402.46h60.54m-60.54 4.64h40.54m-40.54 4.66h53.54m-53.54 4.64h60.54m-60.54 4.65h25.54m161.38-18.6h20.54m-20.54 4.64h61.54m-61.54 4.66h46.54m-46.54 4.64h30.54m-30.54 4.65h49.54" stroke-width="1.5" class="AR AS AW AY Ai"/></svg>