<svg xmlns="http://www.w3.org/2000/svg" viewBox="0 0 1793.4 392.6"><g id="Layer_2" data-name="Layer 2"><g id="Layer_1-2" data-name="Layer 1"><g id="Layer_2-2" data-name="Layer 2"><g id="Layer_1-2-2" data-name="Layer 1-2"><path d="M48,2.7H94.7l48,239.7H102.1L92.6,187H50.9l-9.8,55.3H0ZM88,159.2,71.6,58.6,55.3,159.2Z" style="fill:#fff"/><path d="M164,71.3h38.8V86.4q17.1-18,40.2-18a29.9,29.9,0,0,1,17.8,5.2c4.9,3.5,8.6,8.6,10.9,15.5q17.9-20.7,43.2-20.7c9.5,0,17.2,3.5,23,10.4s8.7,16.8,8.7,29.9V242.4H308.1V112.5c0-6.3-1.1-10.8-3.1-13.4s-5.2-3.8-9.4-3.8A25.9,25.9,0,0,0,285.1,98a36.4,36.4,0,0,0-10.5,7.4v137H236.5V112.5c0-6.3-1.1-10.8-3.3-13.4s-5.3-3.8-9.5-3.8A23.2,23.2,0,0,0,213.4,98a43.5,43.5,0,0,0-10.7,7.4v137H164Z" style="fill:#fff"/><path d="M386.5,229.2c-8.9-10.5-13.3-26.2-13.3-46.9V131.4q0-31.4,13.4-47.1c9-10.4,22.9-15.6,41.6-15.6s33,5.4,41,16.2,12,27.3,12,49.2v24.5H413.1v33.8c0,8.3,1.3,14.3,3.7,18s6.4,5.6,11.7,5.6,8.9-1.8,11.1-5.5,3.4-9.2,3.4-16.7V179.3h37.9v11.8c0,17.6-4.4,31-13.3,40.1s-22,13.8-39.4,13.8S395.4,239.8,386.5,229.2ZM443,138.8V122.5c0-8.9-1.1-15.2-3.2-19.1s-6.1-5.7-11.6-5.7-9.7,2-11.8,6.2-3.3,11.8-3.3,23.1v11.8Z" style="fill:#fff"/><path d="M509.3,71.3h40.3V97.7c5.7-10.1,11.5-17.4,17.4-21.8a32.4,32.4,0,0,1,19.8-6.7,31.8,31.8,0,0,1,6.2.6v41.8a47,47,0,0,0-16.5-3.6c-10.7,0-19.6,5.5-26.9,16.6V242.4H509.3Z" style="fill:#fff"/><path d="M614.1,10.6h40.2V44.1H614.1Zm0,60.7h40.2V242.4H614.1Z" style="fill:#fff"/><path d="M696.1,228.9c-8.7-10.7-13-26.2-13-46.3V131.1c0-20.3,4.3-35.8,13-46.5s22.5-16,41.7-16,31.4,4.4,39.8,13,12.6,21.9,12.6,39.7v14.2H752.3V120.4c0-8.8-1-14.9-3.1-18.3s-5.8-5-11.1-5-9.6,2.1-11.7,6.2-3.1,11.8-3.1,22.8v62.7c0,10.7,1.1,18,3.4,22s6.1,5.9,11.4,5.9,9.3-1.9,11.2-5.5,3-9.5,3-17.6V175.2h37.9v16.3c0,17.5-4.2,30.9-12.7,40s-21.7,13.6-39.7,13.6S704.7,239.7,696.1,228.9Z" style="fill:#fff"/><path d="M830.6,239.1a39,39,0,0,1-13-15.2,43.6,43.6,0,0,1-4.6-19.4q0-19.8,9.3-32.7a64.5,64.5,0,0,1,23.1-20A369.7,369.7,0,0,1,882,136.1V121.3c0-7.9-1-13.6-2.8-17.3s-5.5-5.4-10.8-5.5c-9.1,0-13.9,6.4-14.3,19l-.6,10.3-38.1-1.4c.6-19.8,5.4-34.3,14.6-43.7s23.1-14,41.6-14c16.8,0,29.2,4.5,37.3,13.7S921,104.6,921,121.3v79a326.9,326.9,0,0,0,3,42H887.9c-2-10.6-3.4-18.8-4.1-24.5a44.2,44.2,0,0,1-12,19.4c-5.7,5.2-13,7.8-21.8,7.9A33,33,0,0,1,830.6,239.1Zm43.8-27.5a36.5,36.5,0,0,0,7.5-7.7V156c-10.4,6.1-18.2,12-23.4,17.6s-7.7,12.7-7.7,21.2c0,6.3,1.3,11.3,3.7,14.9a11.8,11.8,0,0,0,10.3,5.5A15.4,15.4,0,0,0,874.4,211.6Z" style="fill:#fff"/><path d="M950.6,71.3h40.2V88.2c13.6-13,27.5-19.5,41.5-19.5,9.6,0,16.9,3.5,21.7,10.6s7.3,16.1,7.3,26.9V242.4H1021V114.2c0-5.5-.8-9.5-2.5-12.1s-4.7-3.9-9-3.8-11,2.7-18.7,8.2V242.4H950.6Z" style="fill:#fff"/><path d="M1177.1,227.3q-16-18.3-17.6-54.8l37.6-7.4c.6,15.2,3,26.8,7.3,34.8s10.9,12,20,12c6.7,0,11.7-2,15-6.1s4.9-9.5,4.8-16.4c0-9.5-2.1-17.5-6.3-24.1s-10.9-13.9-20-21.8l-30.2-26.3c-9.3-7.9-16.2-16.4-20.9-25.4s-6.9-20-7-32.6c0-18.7,5.5-33.3,16.5-43.6S1202.3,0,1221.7,0s35.5,5.9,44.5,17.6,14.2,27.6,15.6,47.5l-37.6,6.5c-.6-13-2.5-22.8-5.5-29.4s-9-9.9-17.9-9.9c-6.3,0-11.3,2.1-14.8,6.3s-5.4,9.6-5.3,16.2,1.5,14.1,4.6,19.3,8,10.9,14.9,16.7l29.9,26.4c11.2,9.7,20,20,26.3,31.1s9.5,23.8,9.5,38.4c0,11.5-2.5,21.6-7.6,30.5a53,53,0,0,1-21.1,20.9c-9.1,5-19.6,7.5-31.4,7.5Q1193.3,245.6,1177.1,227.3Z" style="fill:#f9a11e"/><path d="M1325.4,233.2c-6.4-7.5-9.6-18.6-9.6-33.4V97.7h-17.2V71.3h17.2V20.1h40.5V71.3h25.8V97.7h-25.8v98.5c0,5.7,1.3,9.9,3.7,12.5s6.4,3.8,11.7,3.8a51.2,51.2,0,0,0,12.4-1.2v31.1a158.2,158.2,0,0,1-25.7,2.1C1342.8,244.4,1331.8,240.7,1325.4,233.2Z" style="fill:#f9a11e"/><path d="M1413.1,234.4c-4.7-7.1-7.1-16.1-7.1-26.9V71.3h40V200.1c0,5.3.9,9.3,2.7,12.1s4.8,4.1,9.2,4.1,10.5-2.6,18-8V71.3h40.3V242.4h-40.3V226.1q-19.8,19.1-41.1,19C1425.1,245.1,1417.9,241.5,1413.1,234.4Z" style="fill:#f9a11e"/><path d="M1554.8,230.4c-6.9-9.8-10.3-25.2-10.3-46.3V131.7c0-19.3,3.2-34.7,9.7-46s16.8-17,31.2-17c11,0,21.3,4.5,30.8,13.6V2.7h40.5V242.4h-40.5V230.2c-9.5,9.9-19.6,14.8-30.5,14.9Q1565,245.1,1554.8,230.4Zm61.4-18.8V101.8a27.2,27.2,0,0,0-16-5.6c-10.3,0-15.4,9-15.4,26.9V187c0,9.7,1.1,17.1,3.2,22.4s6.2,7.8,12.2,7.8,10.4-1.8,16-5.6Z" style="fill:#f9a11e"/><path d="M1688.7,259.8c10.6,0,18.2-.9,22.6-2.8s6.7-5.4,6.7-10.8c0-3.5-2.1-13.6-6.2-30.2L1674.2,71.3h39l22.2,113.1,19.3-113.1h38.7l-40,177.9c-3.3,14.4-9.7,24.6-19.1,30.6s-22,9-38,9h-7.6Z" style="fill:#f9a11e"/><path d="M233.4,349.8h34.1a60.1,60.1,0,0,1-1.3,15.3,34.1,34.1,0,0,1-7.2,13.7,40.3,40.3,0,0,1-30.3,13.7,42.1,42.1,0,0,1-42.2-41.9v-.3c0-12,4.1-22.1,12.4-30.3a41.5,41.5,0,0,1,30.3-12.4c14,0,25.7,5.9,34.7,17.8l-6.6,6.2c-7.3-10.4-16.8-15.5-28.2-15.5a32,32,0,0,0-23.8,10,34.3,34.3,0,0,0-9.7,24.3,33.7,33.7,0,0,0,9.7,23.6c6.5,6.6,14.3,10,23.2,10a30.4,30.4,0,0,0,20-7.1c6.2-4.9,9.2-11.1,9.2-18.6H233.4Z" style="fill:#fff"/><path d="M288.7,339.9v5.6h.2c3.5-4.7,7.3-7,11.3-7a15.9,15.9,0,0,1,7.9,2.4l-4.2,7.9c-2.3-1.5-4-2.3-5.2-2.3-6.6,0-10,6.3-10,18.9V391H280V339.9Z" style="fill:#fff"/><path d="M321.2,367.3a17.9,17.9,0,0,0,4.8,12.3,16.4,16.4,0,0,0,12,4.8c6.4,0,11.6-3.5,15.5-10.5l7.4,4.2c-5.1,9.6-13,14.3-23.5,14.3-7.5,0-13.6-2.5-18.2-7.5s-6.9-11.3-6.9-18.8,2.2-14.3,6.5-19.4,10.6-8.2,18.3-8.2,14.2,2.9,18.6,8.7,6.1,12.1,5.7,20.1Zm31-7.4c-1.2-7.5-7.5-13.3-15-13.3a15.8,15.8,0,0,0-15.5,13.3Z" style="fill:#fff"/><path d="M420,339.9V391h-8.7v-7H411a21.4,21.4,0,0,1-17.6,8.5,22.5,22.5,0,0,1-17.8-8.2c-4.5-5.1-6.7-11.3-6.7-18.7s2.2-13.9,6.5-19,10.6-8,18.1-8a21,21,0,0,1,17.5,8.7h.2V340ZM382.4,352a19.5,19.5,0,0,0-4.5,12.9,21,21,0,0,0,4.3,13.5,15.1,15.1,0,0,0,12.4,6,15.9,15.9,0,0,0,12.8-5.7c2.9-3.6,4.3-8.1,4.3-13.6s-1.5-9.7-4.7-13.2a15.9,15.9,0,0,0-12.5-5.3A15.6,15.6,0,0,0,382.4,352Z" style="fill:#fff"/><path d="M445.2,348v43h-8.7V348h-5.4v-8h5.4V321.5h8.7v18.4h9.1v8Z" style="fill:#fff"/><path d="M517.4,317.5V391h-9.2V317.5H488.5V309h48.9v8.5Z" style="fill:#fff"/><path d="M551.1,367.3a17,17,0,0,0,4.8,12.3,16.2,16.2,0,0,0,12,4.8c6.4,0,11.6-3.5,15.5-10.5l7.4,4.2c-5.1,9.6-13,14.3-23.6,14.3-7.5,0-13.6-2.5-18.1-7.5s-6.9-11.3-6.9-18.8,2.2-14.3,6.4-19.4,10.7-8.2,18.4-8.2,14.1,2.9,18.6,8.7,6.1,12.1,5.6,20.1Zm31-7.4c-1.2-7.5-7.5-13.3-15-13.3a15,15,0,0,0-10.3,3.9,14.7,14.7,0,0,0-5.3,9.4Z" style="fill:#fff"/><path d="M649.8,339.9V391h-8.7v-7h-.2a21.2,21.2,0,0,1-17.6,8.5,22.2,22.2,0,0,1-17.8-8.2c-4.5-5.1-6.7-11.3-6.7-18.7s2.2-13.9,6.5-19a22.7,22.7,0,0,1,18-8,21,21,0,0,1,17.6,8.7h.2V340ZM612.3,352a19.1,19.1,0,0,0-4.6,12.9,21.1,21.1,0,0,0,4.4,13.5,15,15,0,0,0,12.4,6,15.5,15.5,0,0,0,12.7-5.7,20.9,20.9,0,0,0,4.4-13.6,19,19,0,0,0-4.7-13.2,16.1,16.1,0,0,0-12.5-5.3A15.4,15.4,0,0,0,612.3,352Z" style="fill:#fff"/><path d="M703.9,355.1h-.3c-4.4-5.7-9.7-8.5-15.8-8.5a16.5,16.5,0,0,0-13,5.5,18.9,18.9,0,0,0-5.1,13.4,19.8,19.8,0,0,0,4.8,13.3,16.4,16.4,0,0,0,12.8,5.6c6.7,0,12.2-2.9,16.7-8.8h.2v11.6a28.5,28.5,0,0,1-16.2,5.3c-7.8,0-14.4-2.5-19.5-7.7s-7.7-11.5-7.7-19.3a26,26,0,0,1,7.8-19.3,27.9,27.9,0,0,1,35.3-2.6Z" style="fill:#fff"/><path d="M717.7,301.3h8.7l.2,44.8a17.2,17.2,0,0,1,14.6-7.6q17.4,0,17.4,22.2V391h-8.7V362.2c0-5.1-.6-8.8-1.7-11s-4.5-4.7-9.1-4.7-9,2.2-10.9,6.7c-1.2,2.9-1.8,7.4-1.8,13.6V391h-8.7Z" style="fill:#fff"/><path d="M779.4,367.3a17.9,17.9,0,0,0,4.8,12.3,16.4,16.4,0,0,0,12,4.8c6.4,0,11.7-3.5,15.6-10.5l7.4,4.2c-5.2,9.6-13,14.3-23.6,14.3-7.5,0-13.6-2.5-18.2-7.5s-6.8-11.3-6.8-18.8,2.1-14.3,6.4-19.4,10.6-8.2,18.4-8.2,14.1,2.9,18.6,8.7,6,12.1,5.6,20.1Zm31-7.4c-1.2-7.5-7.5-13.3-15-13.3a15.8,15.8,0,0,0-15.5,13.3Z" style="fill:#fff"/><path d="M839.8,339.9v5.6h.2c3.5-4.7,7.3-7,11.3-7a15.2,15.2,0,0,1,7.8,2.4l-4.1,7.9c-2.3-1.5-4-2.2-5.2-2.2-6.7,0-10,6.3-10,18.9V391h-8.7V339.9Z" style="fill:#fff"/><path d="M936.8,386.2a6,6,0,0,1-6,6.1,6,6,0,0,1-6.1-6h0a6.1,6.1,0,0,1,12.1,0Z" style="fill:#fff"/><path d="M997.8,349.8H1032a60.1,60.1,0,0,1-1.3,15.3,35.4,35.4,0,0,1-7.2,13.7,40.3,40.3,0,0,1-30.3,13.7A42.1,42.1,0,0,1,951,350.6v-.3c0-12,4.1-22.1,12.4-30.3a41.7,41.7,0,0,1,30.3-12.4c14,0,25.7,5.9,34.7,17.8l-6.6,6.2c-7.3-10.4-16.7-15.5-28.2-15.5a32,32,0,0,0-23.8,10,34.3,34.3,0,0,0-9.7,24.3,33.3,33.3,0,0,0,9.7,23.6c6.5,6.6,14.2,10,23.2,10a30.8,30.8,0,0,0,20-7.1c6.1-4.9,9.2-11.1,9.2-18.6H997.8Z" style="fill:#fff"/><path d="M1053.2,339.9v5.6h.2c3.5-4.7,7.3-7,11.3-7a15.2,15.2,0,0,1,7.8,2.4l-4.1,7.9c-2.3-1.5-4-2.3-5.2-2.3-6.6,0-10,6.3-10,18.9V391h-8.7V339.9Z" style="fill:#fff"/><path d="M1085.7,367.3a17,17,0,0,0,4.8,12.3,16.2,16.2,0,0,0,12,4.8c6.4,0,11.6-3.5,15.5-10.5l7.4,4.2c-5.1,9.6-13,14.3-23.6,14.3-7.5,0-13.6-2.5-18.1-7.5s-6.9-11.3-6.9-18.8,2.2-14.3,6.4-19.4,10.7-8.2,18.4-8.2,14.2,2.9,18.6,8.7,6.1,12.1,5.7,20.1Zm31-7.4c-1.2-7.5-7.5-13.3-15-13.3a14.6,14.6,0,0,0-10.3,3.9,14.7,14.7,0,0,0-5.3,9.4Z" style="fill:#fff"/><path d="M1184.4,339.9V391h-8.7v-7h-.2a21.2,21.2,0,0,1-17.6,8.5,22.5,22.5,0,0,1-17.8-8.2c-4.5-5.1-6.7-11.3-6.7-18.7s2.2-13.9,6.6-19,10.5-8,18-8a21,21,0,0,1,17.5,8.7h.2V340ZM1146.9,352a19.1,19.1,0,0,0-4.6,12.9,21.1,21.1,0,0,0,4.4,13.5,15,15,0,0,0,12.4,6,15.5,15.5,0,0,0,12.7-5.7c3-3.6,4.4-8.1,4.4-13.6a19,19,0,0,0-4.7-13.2,16.1,16.1,0,0,0-12.5-5.3A15.4,15.4,0,0,0,1146.9,352Z" style="fill:#fff"/><path d="M1209.7,348v43H1201V348h-5.3v-8h5.3V321.5h8.7v18.4h9.1v8Z" style="fill:#fff"/><path d="M1297.3,325c-3.4-6-8.2-8.9-14.1-8.9-7.5,0-13.6,5.3-13.6,12.7,0,3.2,1.4,5.9,4.3,8.2a38.8,38.8,0,0,0,8.5,4.6l5.4,2.4q9.8,4.3,13.8,8.4a19.3,19.3,0,0,1,5.9,14.7,24,24,0,0,1-7.5,18,24.5,24.5,0,0,1-18.3,7.3c-13,0-22.9-8.3-25.5-21.2l8.9-2.5c1.2,8.7,7.7,15.2,16.4,15.2a16.9,16.9,0,0,0,11.9-4.5,14.8,14.8,0,0,0,5-11.5,13.1,13.1,0,0,0-4.7-10.4,41.6,41.6,0,0,0-10.4-5.9l-5-2.1c-5.8-2.5-10-5.1-12.5-7.6a18.3,18.3,0,0,1-5.4-13.4,19.6,19.6,0,0,1,7-15.3,23.6,23.6,0,0,1,16-5.6c9.6,0,16.7,4.2,21.2,12.7Z" style="fill:#fff"/><path d="M1358.8,355.1h-.2c-4.4-5.7-9.8-8.5-15.9-8.5a16.3,16.3,0,0,0-12.9,5.5,18.9,18.9,0,0,0-5.1,13.4,19.8,19.8,0,0,0,4.8,13.3,16.4,16.4,0,0,0,12.8,5.6c6.6,0,12.2-2.9,16.7-8.8h.2v11.6a28.7,28.7,0,0,1-16.2,5.3c-7.9,0-14.4-2.5-19.5-7.7s-7.7-11.5-7.7-19.3a26,26,0,0,1,7.8-19.3,27.7,27.7,0,0,1,35.2-2.6Z" style="fill:#fff"/><path d="M1372.7,301.3h8.6l.3,44.8a17.1,17.1,0,0,1,14.5-7.6c11.7,0,17.4,7.4,17.4,22.2V391h-8.7V362.2c0-5.1-.5-8.8-1.6-11s-4.6-4.7-9.1-4.7-9,2.2-10.9,6.7c-1.2,2.9-1.9,7.4-1.9,13.6V391h-8.6Z" style="fill:#fff"/><path d="M1433.2,384.7a25.7,25.7,0,0,1-7.7-19.1,26.3,26.3,0,0,1,7.7-19.3,27.4,27.4,0,0,1,38.3,0,26.3,26.3,0,0,1,7.7,19.3,27.1,27.1,0,0,1-46,19.1Zm6-32.7a20.6,20.6,0,0,0,0,27,17.2,17.2,0,0,0,13.2,5.4,16.9,16.9,0,0,0,13-5.4,20.4,20.4,0,0,0,0-27,18.6,18.6,0,0,0-26.2,0Z" style="fill:#fff"/><path d="M1494.3,384.7a25.7,25.7,0,0,1-7.7-19.1,26.7,26.7,0,0,1,7.7-19.3,27.4,27.4,0,0,1,38.3,0,26.3,26.3,0,0,1,7.7,19.3,27.1,27.1,0,0,1-46,19.1Zm6-32.7a20.6,20.6,0,0,0,0,27,17.2,17.2,0,0,0,13.2,5.4,16.9,16.9,0,0,0,13-5.4,20.4,20.4,0,0,0,0-27,16.9,16.9,0,0,0-13-5.4,17.2,17.2,0,0,0-13.2,5.4Z" style="fill:#fff"/><path d="M1560.8,301.3V391h-8.7V301.3Z" style="fill:#fff"/><path d="M1597.6,351.8c-1.5-3.5-3.8-5.2-7-5.2s-6.3,2.5-6.3,5.6,2.1,4.7,6.2,6.5a107.3,107.3,0,0,1,11.3,5.5,13.3,13.3,0,0,1,6.2,11.6,15.3,15.3,0,0,1-5,12,17.4,17.4,0,0,1-12.3,4.7,18.2,18.2,0,0,1-18-13l7.8-3.2c2.5,5.4,5.9,8.1,10.4,8.1s8.3-3.1,8.3-7.8c0-3.1-2.2-5.8-6.7-8l-10.4-4.8a12.1,12.1,0,0,1-6-10.8,13.3,13.3,0,0,1,4.3-10.4,15.7,15.7,0,0,1,10.9-4,15.2,15.2,0,0,1,13.6,9.5Z" style="fill:#fff"/><path d="M891.1,351.9c-1.5-3.5-3.8-5.3-7-5.3s-6.3,2.5-6.3,5.7,2.1,4.7,6.2,6.5a117,117,0,0,1,11.3,5.4,13.6,13.6,0,0,1,6.2,11.7,15.3,15.3,0,0,1-5,12,17.4,17.4,0,0,1-12.3,4.7,18.2,18.2,0,0,1-18-13l7.8-3.2c2.5,5.4,5.9,8.1,10.4,8.1s8.3-3.1,8.3-7.8c0-3.2-2.2-5.8-6.7-8l-10.4-4.8a12.1,12.1,0,0,1-6-10.8,13.3,13.3,0,0,1,4.3-10.4,15.7,15.7,0,0,1,10.9-4,15.2,15.2,0,0,1,13.6,9.5Z" style="fill:#fff"/></g></g></g></g></svg>