<?xml version="1.0" encoding="UTF-8"?>
<svg version="1.1" viewBox="0 0 2048 768" width="1280" height="1280" xmlns="http://www.w3.org/2000/svg">
<path transform="translate(0)" d="m0 0h2048v768h-2048z" fill="#FDFDFD"/>
<path transform="translate(435,196)" d="m0 0h67l39 1-7 43-13 73-2 9 5-4 9-11 14-15 9-11 13-14 9-11 14-15 7-8 12-14 12-13 7-8 1-1h108l-2 4-7 7-7 8-12 13-11 12-7 8-11 12-9 10-13 14-7 8-11 12-9 10-11 12-7 8-9 10-1 4 16 34 15 32 13 28 17 36 12 26 4 9v2h-42l-66-1-3-4-26-60-19-44-12-28-3-6-1 1-5 30-15 84-5 26-2 2h-102l-3-2 8-41 14-79v-2h-53l-44 1-3 13-19 103-2 6h-105l5-28 26-146 23-129 3-15h105l-1 10-15 85-2 11h98l12-68z" fill="#0454A4"/>
<path transform="translate(1265,422)" d="m0 0h14l12 3 11 6 10 9 7 11 6 16 3 17v19l-3 19-5 13-5 9-9 10-5 4-10 5-12 3-5 1h-9l-16-4-11-6-9-9-8-13-5-15-3-20v-10l3-21 6-16 7-11 5-5 8-7 11-5z" fill="#FE8909"/>
<path transform="translate(973,211)" d="m0 0h8l13 4 8 6 7 8 6 12 4 16 2 16v14l-3 25-4 14-6 12-8 9-14 7-3 1h-14l-11-4-6-4-8-8-7-14-5-19-2-15v-16l3-19 4-13 8-15 6-7 11-7z" fill="#0454A4"/>
<path transform="translate(1692,214)" d="m0 0h7l4 6 15 40 15 39v-13l-2-31v-40h27v137h-27l-3-4-17-41-9-24-4-10v-2h-2l2 12 1 21v48h-26l-1-1v-136z" fill="#0454A4"/>
<path transform="translate(1148,214)" d="m0 0h7l4 6 15 40 15 39v-13l-2-31v-40h27v137h-27l-3-4-17-41-9-24-4-10v-2h-2l2 12 1 21v48h-26l-1-1v-136z" fill="#0454A4"/>
<path transform="translate(1470,214)" d="m0 0h16l14 1v53h23v-53h31v136l-1 1h-29l-1-1-1-53h-21l-1 1v52l-1 1h-29l-1-1v-136z" fill="#0454A4"/>
<path transform="translate(835,214)" d="m0 0 25 1v53h23v-53h31v137h-30l-1-1-1-53h-21l-1 1v52l-1 1h-29l-1-1v-136z" fill="#0454A4"/>
<path transform="translate(1401,214)" d="m0 0 3 1v57l4-10 17-47 3-1h31l-1 5-8 15-8 16-11 23 5 15 21 55 2 5v4h-32l-3-5-14-47h-2l-3 6-1 45-1 1h-29l-1-1v-136z" fill="#0454A4"/>
<path transform="translate(926,425)" d="m0 0h24l4 5 18 34 14 26 13 26 4 10-1-33v-67l1-1h20l1 1v137l-11 1-13-1-5-8-11-22-24-44-11-24-2-6v104h-21z" fill="#FE8909"/>
<path transform="translate(1076,214)" d="m0 0h14l2 2 6 32 18 99v5h-28l-2-2-4-24-1-1h-20l-2 6-4 20-1 1h-28l-1-3 16-75 10-48 3-11z" fill="#0454A4"/>
<path transform="translate(1618,214)" d="m0 0h13l2 2 24 132v4h-28l-2-1-4-24-1-2h-21l-5 26-1 1h-26l-3-1 2-12 22-103 4-20 1-1z" fill="#0454A4"/>
<path transform="translate(1289,214)" d="m0 0 13 1 13 3-1 12-3 15-11-2h-10l-10 3-8 7-5 10-2 10v24l3 13 5 9 5 4 11 3v-27l-1-1-9-1v-24l1-1h38v75l-11 3-13 2h-13l-17-4-10-6-8-7-6-9-6-16-3-18v-14l3-17 4-12 7-12 4-5 11-9 11-5 10-3z" fill="#0454A4"/>
<path transform="translate(1833,214)" d="m0 0 13 1 13 3-1 12-3 15-11-2h-10l-10 3-8 7-5 10-2 10v24l3 13 5 9 5 4 5 2 6 1v-27l-10-2v-24l1-1h38v74l-7 3-17 3h-13l-17-4-10-6-8-7-6-9-6-16-3-18v-14l3-17 4-12 7-12 4-5 11-9 11-5 10-3z" fill="#0454A4"/>
<path transform="translate(1773,425)" d="m0 0h23l1 1v54l1 1 50 1v-56l1-1h22l1 1v137h-24l-1-59-50-1-1 60-11 1h-11l-1-1-1-106v-31z" fill="#FE8909"/>
<path transform="translate(1507,425)" d="m0 0h73v20l-11 1h-37l-1 36h45l1 1v18l-5 2h-40l-1 40h51v20l-19 1h-43l-13-1z" fill="#FE8909"/>
<path transform="translate(1266,442)" d="m0 0h8l10 3 8 7 5 9 4 11 2 12v20l-3 16-5 12-6 8-8 5-3 1h-14l-9-4-8-9-5-11-3-12-1-9v-12l3-19 5-12 4-6 8-7z" fill="#FDFDFD"/>
<path transform="translate(1689,422)" d="m0 0h13l16 4 6 4-1 8-3 8-2 1-9-3-6-1h-12l-13 4-9 6-7 10-5 13-2 14v12l3 16 7 14 9 8 13 5h21l12-2 3 12v7l-19 4-7 1h-10l-18-4-14-7-10-9-7-11-5-12-3-14-1-9v-11l3-19 6-16 7-11 8-8 13-8 13-4z" fill="#FE8909"/>
<path transform="translate(1139,422)" d="m0 0h13l13 3 8 5 1 4-4 12-8-1-10-2h-12l-10 3-10 6-6 7-5 10-3 10-1 7v19l3 14 6 12 8 8 11 5 3 1h22l11-2 3 9 1 9-3 2-23 4h-10l-16-3-12-5-11-8-7-9-7-14-4-16-1-7v-18l3-17 4-11 5-10 11-12 10-7 12-5z" fill="#FE8909"/>
<path transform="translate(1366,425)" d="m0 0h92l1 1v20h-35v117l-9 1-15-1-1-116-33-1-1-1v-19z" fill="#FE8909"/>
<path transform="translate(172,526)" d="m0 0 7 1 3 3h435l67 1 1 1v5l-2 1h-502l-3 3h-6l-5-5 1-6z" fill="#FE8909"/>
<path transform="translate(842,425)" d="m0 0h23v138l-10 1h-12l-2-2v-136z" fill="#FE8909"/>
<path transform="translate(974,238)" d="m0 0 6 1 5 8 3 14v42l-3 15-4 8-4 3-4-1-5-5-3-8-2-16v-31l2-16 4-9z" fill="#FDFDFD"/>
<path transform="translate(760,178)" d="m0 0h11l7 4 5 6 2 5v8l-4 8-7 6-5 2h-8l-8-4-6-7-1-4v-11l4-7 5-4z" fill="#FDFDFD"/>
<path transform="translate(381,552)" d="m0 0 8 1 6 7 1 3v7l-4 8-7 6-3 1h-7l-6-4-3-5v-10l4-8 7-5z" fill="#0454A4"/>
<path transform="translate(1611,244)" d="m0 0 3 3 6 46v7l-1 1h-15l-1-3 6-38z" fill="#FDFDFD"/>
<path transform="translate(1070,244)" d="m0 0h2l2 7 5 41v8l-1 1h-15v-8l6-39z" fill="#FDFDFD"/>
<path transform="translate(224,553)" d="m0 0 5 1 5 11 3 7 2-4 3-14 1-1h5l-2 12-5 19-4 1-4-6-4-12-2-2-1 1-3 17-3 2h-3l1-10 5-21z" fill="#0454A4"/>
<path transform="translate(682,552)" d="m0 0 2 1-1 9-5 22h-6l3-14h-13l-1 9-2 5h-5l1-10 4-18 2-3h4l-1 9-1 3h12l4-12z" fill="#0454A4"/>
<path transform="translate(516,553)" d="m0 0h21v5l-17 1-2 7h17v4l-17 1-1 1-1 7h17l1 4-1 1h-24l1-9 5-21z" fill="#0454A4"/>
<path transform="translate(596,552)" d="m0 0h6l7 6 1 5-5-1-3-3h-7l-5 5-1 2v10l1 3h7l5-4 1-2h5l-1 5-5 5-5 2-9-1-5-6-1-3v-9l4-8 5-4z" fill="#0454A4"/>
<path transform="translate(307,552)" d="m0 0 7 1 5 5 2 5-6-1-3-3h-7l-4 4-2 4v7l3 5 9-1 2-4 5-1 1 2-4 6-7 4h-7l-6-4-3-9 2-10 7-8z" fill="#0454A4"/>
<path transform="translate(760,178)" d="m0 0h11l7 4 5 6 2 5v8l-4 8-7 6-5 2h-8l-8-4-6-7-1-4v-11l4-7 5-4zm0 3-8 6-3 6v8l4 8 3 3 6 2 9-1 8-7 3-5-1-10-5-7-6-3z" fill="#0454A4"/>
<path transform="translate(379,558)" d="m0 0h8l3 3v10l-4 6-5 3-7-1-3-6 1-8 5-6z" fill="#FDFDFD"/>
<path transform="translate(444,553)" d="m0 0h25l-1 5-9 1-2 9-4 15-5 2-1-4 4-19v-3l-7-1-1-4z" fill="#0454A4"/>
<path transform="translate(760,186)" d="m0 0h9l5 6-2 4 1 10-4-1-3-5-4-2v8h-4l-1-1v-15z" fill="#0454A4"/>
<path transform="translate(172,552)" d="m0 0 3 1-4 20-3 11-4 1-2-1 4-20 3-11z" fill="#0454A4"/>
<path transform="translate(172,526)" d="m0 0 7 1 3 7-1 4-3 3h-6l-5-5 1-6z" fill="#0454A4"/>
<path transform="translate(763,189)" d="m0 0 4 1 2 2v3l-6 1-2-3z" fill="#FDFDFD"/>
</svg>
